<svg width="52" height="52" viewBox="0 0 52 52" fill="none" xmlns="http://www.w3.org/2000/svg">
<path fill-rule="evenodd" clip-rule="evenodd" d="M26.0001 27.755C22.0163 27.755 18.5955 29.7293 16.6033 33.18L7.49144 48.962H3.87413C2.39756 48.962 1.29238 48.3235 0.55375 47.0448C-0.184583 45.7657 -0.184583 44.4894 0.55375 43.2106L22.6794 4.8877C23.4181 3.60862 24.5234 2.9707 26.0001 2.9707C27.4768 2.9707 28.5825 3.60833 29.3211 4.8877L51.4465 43.2106C52.1845 44.4893 52.1845 45.7657 51.4465 47.0448C50.7079 48.3235 49.6025 48.962 48.1258 48.962H44.5092L35.3972 33.18C33.405 29.7293 29.9845 27.755 26.0001 27.755ZM15.5934 48.9632L22.6798 36.6892C23.4184 35.4105 24.5238 34.7722 26.0005 34.7722C27.4771 34.7722 28.5828 35.4098 29.3214 36.6892L36.4075 48.9632H15.5934Z" fill="url(#paint0_linear_1902_3873)"/>
<defs>
<linearGradient id="paint0_linear_1902_3873" x1="25.6465" y1="2.9707" x2="25.6465" y2="52.61" gradientUnits="userSpaceOnUse">
<stop stop-color="#00ABBE"/>
<stop offset="1" stop-color="#25D366"/>
</linearGradient>
</defs>
</svg>
