<svg width="213" height="50" viewBox="0 0 213 50" fill="none" xmlns="http://www.w3.org/2000/svg">
<path fill-rule="evenodd" clip-rule="evenodd" d="M24.3258 23.1883C20.5986 23.1883 17.3981 25.0355 15.5341 28.2639L7.00903 43.0297H3.62465C2.24317 43.0297 1.20915 42.4323 0.518091 41.2359C-0.172696 40.0392 -0.172696 38.845 0.518091 37.6486L21.219 1.79355C21.91 0.596838 22.9442 0 24.3258 0C25.7074 0 26.7419 0.596562 27.4329 1.79355L48.1336 37.6486C48.8241 38.8449 48.8241 40.0392 48.1336 41.2359C47.4425 42.4323 46.4083 43.0297 45.0267 43.0297H41.643L33.1178 28.2639C31.2538 25.0355 28.0536 23.1883 24.3258 23.1883ZM14.5898 43.0296L21.2198 31.5459C21.9109 30.3496 22.9451 29.7524 24.3267 29.7524C25.7082 29.7524 26.7427 30.349 27.4338 31.5459L34.0636 43.0296H14.5898Z" fill="url(#paint0_linear_1904_2554)"/>
<path d="M65.4756 41.3942C63.238 41.3942 61.2443 40.9209 59.4944 39.9743C57.7446 38.9989 56.382 37.665 55.4066 35.9725C54.4313 34.2513 53.9436 32.3006 53.9436 30.1205C53.9436 27.9116 54.4313 25.9609 55.4066 24.2684C56.382 22.5759 57.7302 21.2563 59.4514 20.3097C61.1726 19.3343 63.152 18.8467 65.3895 18.8467C67.541 18.8467 69.506 19.3774 71.2846 20.4388C73.0631 21.5002 74.354 23.0349 75.1572 25.043L69.8216 26.9363C69.42 26.1044 68.7888 25.4446 67.9283 24.9569C67.0963 24.4405 66.164 24.1824 65.1313 24.1824C64.0699 24.1824 63.1376 24.4405 62.3344 24.9569C61.5312 25.4446 60.9001 26.133 60.4411 27.0223C59.9821 27.9116 59.7526 28.9443 59.7526 30.1205C59.7526 31.2966 59.9821 32.3293 60.4411 33.2186C60.9001 34.0792 61.5455 34.7677 62.3774 35.284C63.2093 35.8004 64.156 36.0586 65.2174 36.0586C66.2501 36.0586 67.1824 35.786 68.0143 35.241C68.8749 34.696 69.506 33.9788 69.9076 33.0895L75.2863 34.9828C74.4544 37.0196 73.1492 38.5973 71.3706 39.7161C69.6208 40.8349 67.6557 41.3942 65.4756 41.3942Z" fill="#172B4D"/>
<path d="M88.7072 41.3942C86.5271 41.3942 84.5764 40.9209 82.8552 39.9743C81.1627 38.9989 79.8288 37.665 78.8534 35.9725C77.9068 34.28 77.4334 32.3293 77.4334 30.1205C77.4334 27.9116 77.9068 25.9609 78.8534 24.2684C79.8001 22.5759 81.1197 21.2563 82.8122 20.3097C84.5047 19.3343 86.441 18.8467 88.6212 18.8467C90.83 18.8467 92.7807 19.3343 94.4732 20.3097C96.1657 21.2563 97.4853 22.5759 98.4319 24.2684C99.3786 25.9609 99.8519 27.9116 99.8519 30.1205C99.8519 32.3293 99.3786 34.28 98.4319 35.9725C97.4853 37.665 96.1657 38.9989 94.4732 39.9743C92.8094 40.9209 90.8874 41.3942 88.7072 41.3942ZM88.7072 36.1446C89.7686 36.1446 90.7009 35.8864 91.5042 35.3701C92.3074 34.8537 92.9241 34.1509 93.3544 33.2616C93.8134 32.3437 94.0429 31.2966 94.0429 30.1205C94.0429 28.9443 93.8134 27.9116 93.3544 27.0223C92.8954 26.1044 92.25 25.3872 91.4181 24.8708C90.6149 24.3545 89.6826 24.0963 88.6212 24.0963C87.5885 24.0963 86.6561 24.3545 85.8242 24.8708C85.021 25.3872 84.3899 26.1044 83.9309 27.0223C83.4719 27.9116 83.2425 28.9443 83.2425 30.1205C83.2425 31.2966 83.4719 32.3437 83.9309 33.2616C84.3899 34.1509 85.0354 34.8537 85.8673 35.3701C86.6992 35.8864 87.6458 36.1446 88.7072 36.1446Z" fill="#172B4D"/>
<path d="M103.598 40.8779V19.363H108.934L109.278 23.3218V40.8779H103.598ZM117.841 40.8779V29.8623H123.521V40.8779H117.841ZM117.841 29.8623C117.841 28.3993 117.669 27.2662 117.324 26.4629C117.009 25.6597 116.55 25.086 115.947 24.7417C115.345 24.3688 114.642 24.1824 113.839 24.1824C112.376 24.1537 111.243 24.5983 110.44 25.5163C109.665 26.4342 109.278 27.7969 109.278 29.6041H107.384C107.384 27.3092 107.714 25.3729 108.374 23.7951C109.063 22.1887 110.009 20.9695 111.214 20.1376C112.448 19.277 113.882 18.8467 115.517 18.8467C117.21 18.8467 118.658 19.1909 119.863 19.8794C121.068 20.5679 121.986 21.6436 122.617 23.1066C123.248 24.5409 123.549 26.4056 123.521 28.7005V29.8623H117.841Z" fill="#172B4D"/>
<path d="M138.166 41.3942C135.986 41.3942 134.035 40.9209 132.314 39.9743C130.622 38.9989 129.288 37.665 128.312 35.9725C127.366 34.28 126.892 32.3293 126.892 30.1205C126.892 27.9116 127.366 25.9609 128.312 24.2684C129.259 22.5759 130.579 21.2563 132.271 20.3097C133.964 19.3343 135.9 18.8467 138.08 18.8467C140.289 18.8467 142.24 19.3343 143.932 20.3097C145.625 21.2563 146.944 22.5759 147.891 24.2684C148.838 25.9609 149.311 27.9116 149.311 30.1205C149.311 32.3293 148.838 34.28 147.891 35.9725C146.944 37.665 145.625 38.9989 143.932 39.9743C142.268 40.9209 140.346 41.3942 138.166 41.3942ZM138.166 36.1446C139.228 36.1446 140.16 35.8864 140.963 35.3701C141.766 34.8537 142.383 34.1509 142.813 33.2616C143.272 32.3437 143.502 31.2966 143.502 30.1205C143.502 28.9443 143.272 27.9116 142.813 27.0223C142.354 26.1044 141.709 25.3872 140.877 24.8708C140.074 24.3545 139.141 24.0963 138.08 24.0963C137.047 24.0963 136.115 24.3545 135.283 24.8708C134.48 25.3872 133.849 26.1044 133.39 27.0223C132.931 27.9116 132.701 28.9443 132.701 30.1205C132.701 31.2966 132.931 32.3437 133.39 33.2616C133.849 34.1509 134.494 34.8537 135.326 35.3701C136.158 35.8864 137.105 36.1446 138.166 36.1446Z" fill="#172B4D"/>
<path d="M153.057 40.8779V19.363H158.392L158.651 22.16C159.31 21.0699 160.157 20.2523 161.189 19.7073C162.222 19.1335 163.37 18.8467 164.632 18.8467C166.382 18.8467 167.845 19.2196 169.021 19.9655C170.226 20.7113 171.101 21.8588 171.646 23.4078C172.277 21.9448 173.166 20.826 174.313 20.0515C175.461 19.2483 176.795 18.8467 178.315 18.8467C180.84 18.8467 182.762 19.6499 184.081 21.2563C185.401 22.8341 186.061 25.2724 186.061 28.5714V40.8779H180.381V29.8623C180.381 28.3993 180.223 27.2662 179.907 26.4629C179.592 25.6597 179.161 25.086 178.616 24.7417C178.071 24.3688 177.426 24.1824 176.68 24.1824C175.303 24.1537 174.242 24.5983 173.496 25.5163C172.75 26.4342 172.377 27.7969 172.377 29.6041V40.8779H166.697V29.8623C166.697 28.3993 166.539 27.2662 166.224 26.4629C165.937 25.6597 165.507 25.086 164.933 24.7417C164.388 24.3688 163.742 24.1824 162.997 24.1824C161.62 24.1537 160.558 24.5983 159.812 25.5163C159.095 26.4342 158.737 27.7969 158.737 29.6041V40.8779H153.057Z" fill="#172B4D"/>
<path d="M194.296 50.0002C193.522 50.0002 192.661 49.8424 191.715 49.5269C190.797 49.24 189.979 48.8957 189.262 48.4941L191.37 43.89C191.858 44.1481 192.303 44.3489 192.704 44.4924C193.135 44.6645 193.508 44.7506 193.823 44.7506C194.425 44.7506 194.956 44.5784 195.415 44.2342C195.874 43.9186 196.247 43.4453 196.534 42.8142L199.073 36.8331L205.914 19.363H212.154L202.386 42.7282C201.784 44.1625 201.152 45.4247 200.493 46.5148C199.833 47.6335 199.015 48.4941 198.04 49.0966C197.093 49.699 195.845 50.0002 194.296 50.0002ZM197.567 40.8779L187.713 19.363H193.952L201.138 36.8331L202.988 40.8779H197.567Z" fill="#172B4D"/>
<defs>
<linearGradient id="paint0_linear_1904_2554" x1="23.9949" y1="0" x2="23.9949" y2="46.4415" gradientUnits="userSpaceOnUse">
<stop stop-color="#00ABBE"/>
<stop offset="1" stop-color="#25D366"/>
</linearGradient>
</defs>
</svg>
