<svg width="92" height="41" viewBox="0 0 92 41" fill="none" xmlns="http://www.w3.org/2000/svg">
<g clip-path="url(#clip0_493_23888)">
<mask id="mask0_493_23888" style="mask-type:luminance" maskUnits="userSpaceOnUse" x="1" y="1" width="43" height="40">
<path d="M1.51953 1.00781H43.2966V40.9996H1.51953V1.00781Z" fill="white"/>
</mask>
<g mask="url(#mask0_493_23888)">
<path d="M29.4561 1.30665C28.7054 1.30665 27.9534 1.45218 27.2367 1.74325L5.52889 10.5687C2.51995 11.7912 1.06824 15.2344 2.29073 18.2433L9.93981 37.0573C10.5329 38.5151 11.6571 39.6551 13.1076 40.2664C14.5557 40.8776 16.1578 40.8886 17.6156 40.2955L39.3221 31.4712C40.7799 30.8782 41.9199 29.7539 42.5312 28.3046C43.1424 26.8541 43.1533 25.2532 42.5603 23.7967L34.9112 4.98141C34.3194 3.52363 33.1939 2.38482 31.7446 1.77236C31.0084 1.46188 30.2323 1.30665 29.4561 1.30665ZM15.3962 41.005C14.5836 41.005 13.7722 40.8413 13.0009 40.5162C11.4849 39.8771 10.3085 38.6849 9.68877 37.1604L2.03968 18.3452C0.760189 15.198 2.27982 11.596 5.42701 10.3165L27.1348 1.4922C28.6593 0.872465 30.3341 0.883381 31.8501 1.52252C33.3661 2.16288 34.5437 3.35505 35.1635 4.87953L42.8125 23.6936C43.4323 25.2193 43.4214 26.8941 42.781 28.4101C42.1407 29.9261 40.9497 31.1025 39.4252 31.7223L17.7175 40.5478C16.9679 40.8522 16.1808 41.005 15.3962 41.005Z" fill="black"/>
</g>
<path d="M9.97103 3.65044C9.9019 3.65044 9.84369 3.59829 9.8352 3.52795C9.82792 3.45397 9.8825 3.38726 9.95769 3.37877L10.0305 3.37271C10.1057 3.36543 10.1711 3.42122 10.1784 3.4952C10.1845 3.57039 10.1299 3.63589 10.0547 3.64316L9.98437 3.64923C9.97952 3.65044 9.97467 3.65044 9.97103 3.65044ZM8.83343 3.8554C8.77279 3.8554 8.71822 3.81538 8.70245 3.75353C8.68305 3.68197 8.72549 3.60678 8.79826 3.58859L8.8686 3.57039C8.94137 3.5522 9.01535 3.59586 9.03476 3.66863C9.05295 3.7414 9.00808 3.81417 8.93652 3.83236L8.86739 3.85055C8.85526 3.85419 8.84435 3.8554 8.83343 3.8554ZM7.74192 4.23622C7.68977 4.23622 7.64005 4.2059 7.61822 4.15496C7.5879 4.08704 7.61822 4.007 7.68734 3.97668L7.75405 3.94757C7.82318 3.91847 7.90322 3.95 7.93233 4.01913C7.96265 4.08704 7.9299 4.16709 7.86199 4.19619L7.7965 4.2253C7.7783 4.23258 7.76011 4.23622 7.74192 4.23622ZM6.72317 4.7844C6.67951 4.7844 6.63585 4.76257 6.60917 4.72255C6.56915 4.65948 6.58734 4.57459 6.65041 4.53456L6.71226 4.49454C6.77532 4.45452 6.85901 4.47392 6.89903 4.53699C6.93905 4.60127 6.91965 4.68495 6.85658 4.72497L6.79716 4.76257C6.77411 4.77712 6.74864 4.7844 6.72317 4.7844ZM5.80267 5.48418C5.76507 5.48418 5.72869 5.46841 5.702 5.43809C5.65107 5.38231 5.65713 5.29741 5.71292 5.24647L5.76749 5.19796C5.8245 5.14824 5.9106 5.1543 5.95912 5.2113C6.00884 5.2683 6.00278 5.3532 5.94578 5.40292L5.89363 5.45022C5.86694 5.47205 5.8342 5.48418 5.80267 5.48418ZM5.00101 6.31737C4.97069 6.31737 4.94037 6.30767 4.91611 6.28705C4.8579 6.23975 4.84941 6.15364 4.89671 6.09664L4.94401 6.03964C4.99252 5.98143 5.07742 5.97415 5.13442 6.02266C5.19263 6.07117 5.19991 6.15607 5.1514 6.21428L5.10652 6.26764C5.07984 6.3016 5.04103 6.31737 5.00101 6.31737ZM4.33883 7.26577C4.31578 7.26577 4.29153 7.25971 4.2697 7.24758C4.20542 7.20877 4.18359 7.1263 4.2224 7.06202L4.25999 6.99775C4.2988 6.93347 4.38249 6.91285 4.44555 6.95166C4.50983 6.99047 4.53166 7.07415 4.49285 7.13843L4.45647 7.19907C4.431 7.24273 4.38491 7.26577 4.33883 7.26577Z" fill="black"/>
<path d="M39.7435 36.1245C39.7119 36.1245 39.6804 36.1136 39.6549 36.0917C39.5979 36.0432 39.5919 35.9571 39.6404 35.9001L39.6865 35.8467C39.735 35.7897 39.8211 35.7825 39.8781 35.831C39.9351 35.8795 39.9424 35.9644 39.8938 36.0214L39.8465 36.0784C39.8187 36.1087 39.7811 36.1245 39.7435 36.1245ZM38.9224 36.9395C38.8848 36.9395 38.846 36.9237 38.8193 36.8922C38.7708 36.8352 38.7781 36.7491 38.8351 36.7006L38.8884 36.6545C38.9454 36.606 39.0316 36.612 39.0801 36.669C39.1298 36.7248 39.1237 36.8109 39.0667 36.8594L39.0109 36.9079C38.9855 36.9298 38.9539 36.9395 38.9224 36.9395ZM37.9861 37.6174C37.94 37.6174 37.8952 37.5944 37.8697 37.5531C37.8309 37.4889 37.8515 37.4052 37.9158 37.3664L37.9752 37.3288C38.0395 37.29 38.122 37.3082 38.162 37.3724C38.202 37.4355 38.1826 37.5192 38.1195 37.5592L38.0565 37.598C38.0346 37.6114 38.0104 37.6174 37.9861 37.6174ZM36.9553 38.1414C36.9019 38.1414 36.851 38.1098 36.8291 38.0577C36.8012 37.9885 36.834 37.9085 36.9031 37.8806L36.9686 37.8527C37.0377 37.8236 37.1166 37.8563 37.1469 37.9243C37.176 37.9934 37.1432 38.0734 37.0741 38.1025L37.0062 38.1317C36.9892 38.1377 36.9722 38.1414 36.9553 38.1414ZM35.8553 38.4967C35.7934 38.4967 35.7376 38.4555 35.7231 38.3924C35.7049 38.3196 35.7509 38.2469 35.8237 38.2287L35.8928 38.2117C35.9644 38.1947 36.0384 38.2384 36.0566 38.3111C36.0748 38.3839 36.0299 38.4579 35.9571 38.4761L35.8868 38.4931C35.8759 38.4955 35.865 38.4967 35.8553 38.4967ZM34.7128 38.675C34.6425 38.675 34.5818 38.6204 34.577 38.5501C34.5709 38.4749 34.6267 38.4094 34.7019 38.4045L34.7734 38.3985C34.8474 38.3924 34.9129 38.447 34.919 38.5222C34.9263 38.5961 34.8705 38.6616 34.7953 38.6689L34.7225 38.675C34.7189 38.675 34.7152 38.675 34.7128 38.675ZM30.1539 38.6968H30.0811C30.0072 38.6968 29.9453 38.6362 29.9453 38.561C29.9453 38.4858 30.0072 38.4251 30.0811 38.4251H30.1539C30.2291 38.4251 30.2897 38.4858 30.2897 38.561C30.2897 38.6362 30.2291 38.6968 30.1539 38.6968ZM31.3109 38.6968H31.2394C31.1642 38.6968 31.1035 38.6362 31.1035 38.561C31.1035 38.4858 31.1642 38.4251 31.2394 38.4251H31.3109C31.3861 38.4251 31.4467 38.4858 31.4467 38.561C31.4467 38.6362 31.3861 38.6968 31.3109 38.6968ZM32.4691 38.6968H32.3976C32.3224 38.6968 32.2617 38.6362 32.2617 38.561C32.2617 38.4858 32.3224 38.4251 32.3976 38.4251H32.4691C32.5443 38.4251 32.605 38.4858 32.605 38.561C32.605 38.6362 32.5443 38.6968 32.4691 38.6968ZM33.6274 38.6968H33.5546C33.4794 38.6968 33.4188 38.6362 33.4188 38.561C33.4188 38.4858 33.4794 38.4251 33.5546 38.4251H33.6274C33.7025 38.4251 33.7632 38.4858 33.7632 38.561C33.7632 38.6362 33.7025 38.6968 33.6274 38.6968Z" fill="black"/>
<path d="M34.1462 37.2H10.7139C7.38475 37.2 4.6875 34.5028 4.6875 31.1737V10.8643C4.6875 7.53635 7.38475 4.83789 10.7139 4.83789H34.1462C37.4741 4.83789 40.1726 7.53635 40.1726 10.8643V31.1737C40.1726 34.5028 37.4741 37.2 34.1462 37.2Z" fill="#D2A2FB"/>
<path d="M21.5209 30.0551H14.668V10.9609H21.5768C23.5197 10.9609 25.1949 11.3436 26.6007 12.105C28.0064 12.8684 29.0867 13.9631 29.8434 15.3873C30.5982 16.8076 30.9776 18.5099 30.9776 20.4923C30.9776 22.4806 30.5962 24.1908 29.8354 25.6209C29.0787 27.047 27.9944 28.1438 26.5847 28.9111C25.173 29.6744 23.4857 30.0551 21.5209 30.0551ZM18.7574 26.5992H21.3532C23.1682 26.5992 24.544 26.116 25.4825 25.1475C26.425 24.175 26.8962 22.6226 26.8962 20.4923C26.8962 18.3738 26.425 16.8312 25.4825 15.8686C24.544 14.906 23.1702 14.4247 21.3611 14.4247H18.7574V26.5992Z" fill="black"/>
<path d="M21.9727 24.4862H20.2383L22.7245 20.5082L20.2383 16.5303H21.9727C22.2303 16.5303 22.4719 16.655 22.6211 16.8649L25.0469 20.2778C25.145 20.4158 25.145 20.6007 25.0469 20.7387L22.6211 24.1515C22.4719 24.3615 22.2303 24.4862 21.9727 24.4862Z" fill="black"/>
<path d="M17.2297 1.38721C17.1946 1.38721 17.1594 1.37387 17.1327 1.34719C17.0806 1.29382 17.0806 1.20772 17.1339 1.15435L17.3098 0.978499C17.3619 0.925136 17.448 0.925136 17.5014 0.978499C17.5548 1.03186 17.5548 1.11797 17.5014 1.17012L17.3255 1.34719C17.2989 1.37387 17.2637 1.38721 17.2297 1.38721Z" fill="black"/>
<path d="M16.003 2.6194C15.9678 2.6194 15.9327 2.60727 15.9072 2.58059C15.8538 2.52722 15.8538 2.44111 15.9072 2.38775L16.0831 2.2119C16.1352 2.15853 16.2213 2.15853 16.2747 2.2119C16.328 2.26526 16.328 2.35137 16.2747 2.40352L16.0988 2.58059C16.0721 2.60727 16.037 2.6194 16.003 2.6194Z" fill="black"/>
<path d="M16.1789 1.38721C16.1437 1.38721 16.1085 1.37387 16.0831 1.34719L15.9072 1.17012C15.8538 1.11797 15.8538 1.03186 15.9072 0.978499C15.9594 0.925136 16.0455 0.925136 16.0988 0.978499L16.2747 1.15557C16.328 1.20772 16.328 1.29382 16.2747 1.34719C16.248 1.37387 16.214 1.38721 16.1789 1.38721Z" fill="black"/>
<path d="M17.4054 2.6194C17.3703 2.6194 17.3363 2.60727 17.3096 2.58059L17.1338 2.40352C17.0804 2.35137 17.0804 2.26526 17.1338 2.2119C17.1859 2.15853 17.272 2.15853 17.3254 2.2119L17.5012 2.38775C17.5546 2.44111 17.5546 2.52722 17.5012 2.58059C17.4746 2.60727 17.4394 2.6194 17.4054 2.6194Z" fill="black"/>
<path d="M7.02646 39.2522C6.99129 39.2522 6.95733 39.2389 6.93065 39.2122C6.87728 39.16 6.87728 39.0739 6.93065 39.0206L7.1065 38.8447C7.15865 38.7913 7.24476 38.7913 7.29812 38.8447C7.35027 38.8981 7.35149 38.983 7.29812 39.0363L7.12227 39.2122C7.09559 39.2389 7.06042 39.2522 7.02646 39.2522Z" fill="black"/>
<path d="M5.79599 40.4856C5.76082 40.4856 5.72565 40.4723 5.70018 40.4456C5.64682 40.3934 5.64682 40.3073 5.70018 40.254L5.87603 40.0781C5.92818 40.0247 6.01429 40.0247 6.06765 40.0781C6.12102 40.1303 6.12102 40.2164 6.06765 40.2697L5.8918 40.4456C5.86512 40.4723 5.82995 40.4856 5.79599 40.4856Z" fill="black"/>
<path d="M5.97184 39.2522C5.93667 39.2522 5.90271 39.2389 5.87603 39.2122L5.70018 39.0363C5.64682 38.983 5.64682 38.8981 5.70018 38.8447C5.75233 38.7913 5.83844 38.7913 5.8918 38.8447L6.06765 39.0206C6.12102 39.0739 6.12102 39.16 6.06765 39.2122C6.04097 39.2389 6.00701 39.2522 5.97184 39.2522Z" fill="black"/>
<path d="M7.20231 40.4856C7.16714 40.4856 7.13197 40.4723 7.1065 40.4456L6.93065 40.2697C6.87728 40.2164 6.87728 40.1303 6.93065 40.0781C6.9828 40.0247 7.06891 40.0247 7.12227 40.0781L7.29812 40.254C7.35149 40.3073 7.35027 40.3934 7.29812 40.4456C7.27144 40.4723 7.23627 40.4856 7.20231 40.4856Z" fill="black"/>
<path d="M42.7735 14.496C42.3478 14.496 42.0021 14.8429 42.0021 15.2674C42.0021 15.6931 42.3478 16.0387 42.7735 16.0387C43.1979 16.0387 43.5448 15.6931 43.5448 15.2674C43.5448 14.8429 43.1979 14.496 42.7735 14.496ZM42.7735 16.3104C42.1986 16.3104 41.7305 15.8422 41.7305 15.2674C41.7305 14.6925 42.1986 14.2256 42.7735 14.2256C43.3483 14.2256 43.8153 14.6925 43.8153 15.2674C43.8153 15.8422 43.3483 16.3104 42.7735 16.3104Z" fill="black"/>
<path d="M32.096 2.77436C31.7176 2.77436 31.3356 2.81074 30.956 2.88472L7.74919 7.37327C4.53287 7.99543 2.42261 11.1196 3.04477 14.3371L6.93541 34.4501C7.4848 37.2868 9.97952 39.2636 12.7677 39.2636C13.1401 39.2636 13.5184 39.2285 13.898 39.1557L37.1036 34.666C38.6621 34.3652 40.0095 33.4738 40.8984 32.1591C41.7874 30.8444 42.1112 29.2617 41.8093 27.7033L37.9186 7.59036C37.6166 6.03192 36.7264 4.68451 35.4118 3.79553C34.4173 3.12364 33.27 2.77436 32.096 2.77436ZM12.7677 39.5353C9.85217 39.5353 7.24346 37.4687 6.66859 34.501L2.77796 14.3881C2.12669 11.0238 4.33518 7.75772 7.69825 7.10767L30.9038 2.61791C32.5338 2.30258 34.1881 2.64095 35.5634 3.56995C36.9387 4.50016 37.8689 5.90943 38.1842 7.53821L42.0761 27.6512C42.3914 29.2812 42.053 30.9354 41.1228 32.3107C40.1938 33.686 38.7845 34.6174 37.1558 34.9328L13.9502 39.4213C13.5524 39.4989 13.157 39.5353 12.7677 39.5353Z" fill="black"/>
<mask id="mask1_493_23888" style="mask-type:luminance" maskUnits="userSpaceOnUse" x="43" y="3" width="3" height="3">
<path d="M43.3125 3.84863H45.5938V5.83761H43.3125V3.84863Z" fill="white"/>
</mask>
<g mask="url(#mask1_493_23888)">
<path d="M43.3867 5.81877L45.594 4.97103L44.9949 3.86133L43.3867 5.81877Z" fill="black"/>
</g>
<mask id="mask2_493_23888" style="mask-type:luminance" maskUnits="userSpaceOnUse" x="38" y="0" width="5" height="5">
<path d="M38.9609 0.25H42.0657V4.32741H38.9609V0.25Z" fill="white"/>
</mask>
<g mask="url(#mask2_493_23888)">
<path d="M40.7719 0.25L39.2656 4.05817L41.9447 1.05529L40.7719 0.25Z" fill="black"/>
</g>
<mask id="mask3_493_23888" style="mask-type:luminance" maskUnits="userSpaceOnUse" x="42" y="34" width="4" height="3">
<path d="M42.4453 34.2578H45.5949V36.5318H42.4453V34.2578Z" fill="white"/>
</mask>
<g mask="url(#mask3_493_23888)">
<path d="M42.5234 34.2744L45.2522 36.489L45.5724 35.2119L42.5234 34.2744Z" fill="black"/>
</g>
<path d="M2.93564 32.8351L0.628906 32.7744L0.753824 33.9993L2.93564 32.8351Z" fill="black"/>
<path d="M1.26069 38.7733L4.04405 35.9014L0.503906 37.609L1.26069 38.7733Z" fill="black"/>
<mask id="mask4_493_23888" style="mask-type:luminance" maskUnits="userSpaceOnUse" x="0" y="7" width="3" height="2">
<path d="M0 7.12207H2.32856V8.98492H0V7.12207Z" fill="white"/>
</mask>
<g mask="url(#mask4_493_23888)">
<path d="M2.05353 8.92821L0.237975 7.3916L0.00390625 8.25268L2.05353 8.92821Z" fill="black"/>
</g>
<path d="M48.8555 3.53534V2.36621H54.3615V3.53534H52.3095V9.07538H50.9075V3.53534H48.8555Z" fill="black"/>
<path d="M56.6345 6.16953V9.07538H55.2422V2.36621H56.5957V4.93248H56.6539C56.7703 4.63535 56.9547 4.40249 57.2069 4.23391C57.4592 4.06655 57.7757 3.98165 58.1577 3.98165C58.6817 3.98165 59.1013 4.15023 59.419 4.48617C59.7392 4.82333 59.8993 5.2854 59.8993 5.87361V9.07538H58.5022V6.12102C58.5046 5.81054 58.427 5.57041 58.2693 5.39819C58.1104 5.22719 57.8885 5.14108 57.6047 5.14108C57.3197 5.14108 57.0868 5.23204 56.9061 5.41275C56.7279 5.59103 56.6369 5.84329 56.6345 6.16953Z" fill="black"/>
<path d="M63.2943 9.1722C62.7801 9.1722 62.335 9.0679 61.9602 8.85687C61.5879 8.64706 61.3017 8.3475 61.1016 7.9594C60.9002 7.57131 60.8008 7.11288 60.8008 6.58167C60.8008 6.06502 60.9002 5.61144 61.1016 5.22334C61.3017 4.83283 61.5842 4.52841 61.9505 4.31132C62.3156 4.09181 62.7461 3.98145 63.2409 3.98145C63.6836 3.98145 64.0826 4.07604 64.4392 4.26281C64.7981 4.4508 65.0807 4.73338 65.2881 5.11177C65.4979 5.49016 65.6034 5.96436 65.6034 6.53316V6.9164H62.1785V6.92125C62.1785 7.29722 62.2804 7.59314 62.4841 7.80902C62.6903 8.02611 62.9693 8.13405 63.3185 8.13405C63.5514 8.13405 63.7527 8.08554 63.9249 7.98851C64.0959 7.88906 64.216 7.7411 64.2839 7.54706L65.5743 7.63438C65.4773 8.10009 65.2275 8.47363 64.8273 8.755C64.4295 9.03394 63.9177 9.1722 63.2943 9.1722ZM62.1785 6.0529H64.2936C64.29 5.75212 64.193 5.50471 64.0026 5.31067C63.8109 5.11662 63.5659 5.0196 63.2652 5.0196C62.9547 5.0196 62.6988 5.12026 62.4987 5.32037C62.301 5.52169 62.1943 5.76546 62.1785 6.0529Z" fill="black"/>
<path d="M53.7053 26.8258H49.543V15.0859H53.7392C54.9193 15.0859 55.9368 15.3212 56.7906 15.7894C57.6444 16.2587 58.3005 16.9318 58.7602 17.8074C59.2186 18.6807 59.4491 19.7273 59.4491 20.9462C59.4491 22.1686 59.2174 23.2201 58.7553 24.0994C58.2957 24.9763 57.6371 25.6506 56.7809 26.1223C55.9235 26.5917 54.8987 26.8258 53.7053 26.8258ZM52.0268 24.701H53.6034C54.7058 24.701 55.5414 24.4038 56.1115 23.8083C56.6839 23.2104 56.9701 22.256 56.9701 20.9462C56.9701 19.6436 56.6839 18.6952 56.1115 18.1034C55.5414 17.5115 54.707 17.2156 53.6082 17.2156H52.0268V24.701Z" fill="#9D5BEC"/>
<path d="M61.2812 26.8258V15.0859H65.9141C66.8031 15.0859 67.5611 15.2557 68.1893 15.5953C68.8163 15.9325 69.2954 16.3994 69.6253 16.9973C69.9551 17.5964 70.1201 18.2853 70.1201 19.0639C70.1201 19.8437 69.9515 20.5314 69.6156 21.1256C69.2784 21.7211 68.7921 22.1868 68.1554 22.5228C67.5211 22.8563 66.7534 23.0225 65.8511 23.0225H63.765V26.8258H61.2812ZM63.765 21.0335H65.4484C66.1591 21.0335 66.6903 20.8516 67.0396 20.4853C67.3889 20.1202 67.5635 19.646 67.5635 19.0639C67.5635 18.4818 67.3889 18.0136 67.0396 17.6571C66.6903 17.2981 66.1567 17.1186 65.4387 17.1186H63.765V21.0335Z" fill="#9D5BEC"/>
<path d="M71.7383 26.8258V15.0859H76.3711C77.2601 15.0859 78.0181 15.2557 78.6463 15.5953C79.2734 15.9325 79.7524 16.3994 80.0823 16.9973C80.4122 17.5964 80.5771 18.2853 80.5771 19.0639C80.5771 19.8437 80.4085 20.5314 80.0726 21.1256C79.7354 21.7211 79.2491 22.1868 78.6124 22.5228C77.9781 22.8563 77.2104 23.0225 76.3081 23.0225H74.2221V26.8258H71.7383ZM74.2221 21.0335H75.9054C76.6161 21.0335 77.1473 20.8516 77.4966 20.4853C77.8459 20.1202 78.0205 19.646 78.0205 19.0639C78.0205 18.4818 77.8459 18.0136 77.4966 17.6571C77.1473 17.2981 76.6137 17.1186 75.8957 17.1186H74.2221V21.0335Z" fill="#9D5BEC"/>
<path d="M55.0231 34.6794H53.5872C53.5314 34.3107 53.375 34.0221 53.1166 33.8111C52.8571 33.6013 52.5345 33.4957 52.1464 33.4957C51.6249 33.4957 51.2077 33.6874 50.8948 34.0682C50.5807 34.4502 50.4242 34.9899 50.4242 35.6885C50.4242 36.404 50.5807 36.9473 50.8948 37.3185C51.2113 37.6908 51.6249 37.8763 52.1367 37.8763C52.5114 37.8763 52.8304 37.7781 53.0924 37.5804C53.3543 37.384 53.5193 37.105 53.5872 36.746L55.0231 36.7557C54.971 37.1669 54.8242 37.5537 54.5817 37.9152C54.3415 38.2778 54.0141 38.5725 53.5969 38.7981C53.1797 39.0212 52.6849 39.1328 52.1124 39.1328C51.5133 39.1328 50.9785 38.997 50.5067 38.7253C50.0373 38.4536 49.6674 38.0631 49.3958 37.5513C49.1241 37.0371 48.9883 36.4161 48.9883 35.6885C48.9883 34.9584 49.1253 34.335 49.4006 33.8208C49.6747 33.3065 50.0483 32.916 50.5213 32.6468C50.993 32.3788 51.523 32.2441 52.1124 32.2441C52.6291 32.2441 53.0948 32.34 53.5096 32.5304C53.9268 32.722 54.2676 32.9985 54.5332 33.3599C54.7976 33.7225 54.9613 34.1628 55.0231 34.6794Z" fill="black"/>
<path d="M58.2866 39.137C57.7784 39.137 57.3382 39.0291 56.9671 38.812C56.5984 38.5961 56.3134 38.2929 56.1133 37.9048C55.9119 37.5143 55.8125 37.0607 55.8125 36.5465C55.8125 36.0262 55.9119 35.5714 56.1133 35.1833C56.3134 34.7928 56.5984 34.4884 56.9671 34.2713C57.3382 34.0554 57.7784 33.9463 58.2866 33.9463C58.7972 33.9463 59.2374 34.0554 59.6061 34.2713C59.9748 34.4884 60.2586 34.7928 60.4599 35.1833C60.6637 35.5714 60.7655 36.0262 60.7655 36.5465C60.7655 37.0607 60.6637 37.5143 60.4599 37.9048C60.2586 38.2929 59.9748 38.5961 59.6061 38.812C59.2374 39.0291 58.7972 39.137 58.2866 39.137ZM58.2963 38.0552C58.6383 38.0552 58.8991 37.9121 59.0773 37.6235C59.2544 37.336 59.3442 36.9734 59.3442 36.5368C59.3442 36.0978 59.2544 35.7339 59.0773 35.4453C58.8991 35.1542 58.6383 35.0087 58.2963 35.0087C57.9434 35.0087 57.6766 35.1542 57.4959 35.4453C57.3176 35.7339 57.229 36.0978 57.229 36.5368C57.229 36.9734 57.3176 37.336 57.4959 37.6235C57.6766 37.9121 57.9434 38.0552 58.2963 38.0552Z" fill="black"/>
<path d="M61.6719 39.04V34.0094H63.0011V34.8971H63.0593C63.1624 34.6 63.337 34.3671 63.5832 34.1985C63.8282 34.0312 64.1217 33.9463 64.4613 33.9463C64.8069 33.9463 65.0992 34.0324 65.3394 34.2034C65.5819 34.3756 65.7432 34.606 65.8245 34.8971H65.8778C65.9809 34.6097 66.1665 34.3805 66.4357 34.2083C66.7074 34.0336 67.0276 33.9463 67.3963 33.9463C67.8644 33.9463 68.2464 34.0955 68.5411 34.3926C68.8346 34.6909 68.9826 35.113 68.9826 35.6588V39.04H67.5903V35.9304C67.5903 35.6527 67.5151 35.4441 67.3671 35.3046C67.218 35.1664 67.0324 35.096 66.8093 35.096C66.557 35.096 66.3593 35.1773 66.2174 35.3386C66.0743 35.4975 66.004 35.7073 66.004 35.9692V39.04H64.6505V35.9013C64.6505 35.6563 64.5789 35.4599 64.437 35.3143C64.2976 35.1688 64.1132 35.096 63.884 35.096C63.6536 35.096 63.4595 35.1809 63.3019 35.3483C63.143 35.5169 63.0642 35.7412 63.0642 36.0226V39.04H61.6719Z" fill="black"/>
<path d="M70.082 40.9271V34.0094H71.4549V34.8535H71.518C71.5823 34.7176 71.6708 34.5806 71.7848 34.4411C71.9012 34.2992 72.054 34.1816 72.2457 34.087C72.4361 33.9936 72.6701 33.9463 72.9491 33.9463C73.3178 33.9463 73.6549 34.0421 73.963 34.2325C74.2734 34.4241 74.5209 34.7116 74.7052 35.096C74.892 35.478 74.9866 35.9571 74.9866 36.532C74.9866 37.0923 74.8956 37.5653 74.7149 37.9534C74.533 38.339 74.2892 38.6301 73.9824 38.8266C73.6743 39.0243 73.3287 39.1225 72.9442 39.1225C72.675 39.1225 72.4458 39.0788 72.2554 38.9915C72.0674 38.9018 71.9133 38.7878 71.7945 38.6519C71.6744 38.5137 71.5823 38.3742 71.518 38.2347H71.4743V40.9271H70.082ZM71.4452 36.5271C71.4452 36.9734 71.5374 37.3324 71.7217 37.6041C71.9061 37.8757 72.1656 38.0116 72.5028 38.0116C72.8448 38.0116 73.1067 37.8745 73.2887 37.5992C73.4694 37.3215 73.5603 36.9637 73.5603 36.5271C73.5603 36.0905 73.4694 35.7364 73.2887 35.4647C73.1104 35.1906 72.8484 35.0524 72.5028 35.0524C72.1656 35.0524 71.9061 35.1858 71.7217 35.4502C71.5374 35.7158 71.4452 36.0747 71.4452 36.5271Z" fill="black"/>
<path d="M77.3446 39.137C76.8655 39.137 76.4677 39.0109 76.1512 38.7586C75.8334 38.5064 75.6758 38.1316 75.6758 37.6332C75.6758 37.2584 75.7643 36.9637 75.9426 36.7503C76.1197 36.5368 76.3513 36.3816 76.6363 36.2846C76.9237 36.1851 77.2342 36.1184 77.5677 36.0857C78.0043 36.0444 78.316 35.9983 78.504 35.9498C78.6908 35.9013 78.7854 35.797 78.7854 35.6345V35.6151C78.7854 35.4089 78.7187 35.2488 78.5865 35.1348C78.4567 35.022 78.2736 34.965 78.0383 34.965C77.786 34.965 77.5847 35.0208 77.4368 35.13C77.2876 35.2367 77.1906 35.375 77.1457 35.5423L75.8553 35.4356C75.9487 34.9796 76.1864 34.6182 76.5684 34.3489C76.9492 34.0809 77.4416 33.9463 78.0432 33.9463C78.4179 33.9463 78.7672 34.0069 79.091 34.1258C79.4172 34.2422 79.6792 34.4253 79.8769 34.674C80.077 34.9238 80.1777 35.2488 80.1777 35.649V39.04H78.8581V38.3414H78.8193C78.6956 38.5743 78.5113 38.7659 78.2663 38.9139C78.0237 39.0618 77.7157 39.137 77.3446 39.137ZM77.7472 38.1717C78.0504 38.1717 78.3015 38.0831 78.4992 37.9048C78.6956 37.7278 78.7951 37.5058 78.7951 37.2402V36.7066C78.7393 36.7454 78.6544 36.7794 78.538 36.8085C78.424 36.8352 78.3027 36.8594 78.1741 36.8812C78.0444 36.9007 77.9279 36.9188 77.8248 36.9346C77.5787 36.971 77.381 37.0401 77.233 37.1432C77.0838 37.2439 77.0099 37.393 77.0099 37.5895C77.0099 37.7811 77.079 37.9267 77.2185 38.0261C77.3567 38.1231 77.5338 38.1717 77.7472 38.1717Z" fill="black"/>
<path d="M82.6579 36.1342V39.04H81.2656V34.0094H82.5948V34.8971H82.6531C82.7658 34.606 82.9514 34.3756 83.2109 34.2034C83.4729 34.0324 83.7907 33.9463 84.1666 33.9463C84.6906 33.9463 85.1102 34.1149 85.4279 34.4508C85.7445 34.788 85.9033 35.25 85.9033 35.8382V39.04H84.5062V36.0857C84.5086 35.7788 84.4298 35.5399 84.2685 35.3677C84.1096 35.193 83.8913 35.1057 83.6136 35.1057C83.3322 35.1057 83.1018 35.1967 82.9247 35.3774C82.7501 35.5557 82.6603 35.8079 82.6579 36.1342Z" fill="black"/>
<path d="M87.8104 40.9993C87.6128 40.9993 87.443 40.9811 87.3011 40.946C87.1616 40.9132 87.0512 40.8793 86.9712 40.8441L87.2865 39.7623C87.5315 39.8363 87.7389 39.8557 87.9075 39.8205C88.0785 39.7877 88.2131 39.6568 88.3101 39.4275L88.4023 39.185L86.5977 34.0088H88.0676L89.1106 37.7054H89.1591L90.2118 34.0088H91.6865L89.7218 39.6167C89.5823 40.017 89.3555 40.3468 89.0426 40.6064C88.7322 40.8683 88.321 40.9993 87.8104 40.9993Z" fill="black"/>
</g>
<defs>
<clipPath id="clip0_493_23888">
<rect width="91.686" height="40.7496" fill="white" transform="translate(0 0.25)"/>
</clipPath>
</defs>
</svg>
