<svg xmlns="http://www.w3.org/2000/svg" width="122" height="30" viewBox="0 0 122 30" fill="none"><path d="M1.34198 8.15479V21.3628L12.7824 27.9683L24.2228 21.3638V8.15381L12.7824 1.54932L1.34198 8.15479ZM25.4152 22.0532L25.34 22.0962L12.8576 29.3032L12.7824 29.3462L12.7072 29.3032L0.224792 22.0962L0.149597 22.0532V7.46631L0.224792 7.42334L12.7072 0.216309L12.7824 0.17334L12.8576 0.216309L25.34 7.42334L25.4152 7.46631V22.0532Z" fill="black" stroke="black" stroke-width="0.3"></path><path d="M49.2927 8.15479V21.3628L60.7331 27.9683L72.1735 21.3638V8.15381L60.7331 1.54932L49.2927 8.15479ZM73.3659 22.0532L73.2907 22.0962L60.8083 29.3032L60.7331 29.3462L60.6579 29.3032L48.1755 22.0962L48.1003 22.0532V7.46631L48.1755 7.42334L60.6579 0.216309L60.7331 0.17334L60.8083 0.216309L73.2907 7.42334L73.3659 7.46631V22.0532Z" fill="black" stroke="black" stroke-width="0.3"></path><path d="M97.2375 8.17822V21.3862L108.678 27.9917L120.118 21.3872V8.17725L108.678 1.57275L97.2375 8.17822ZM121.311 22.0767L121.236 22.1196L108.753 29.3267L108.678 29.3696L108.603 29.3267L96.1203 22.1196L96.0451 22.0767V7.48975L96.1203 7.44678L108.603 0.239746L108.678 0.196777L108.753 0.239746L121.236 7.44678L121.311 7.48975V22.0767Z" fill="black" stroke="black" stroke-width="0.3"></path><path d="M73.2629 8.15479V21.3628L84.7033 27.9683L96.1437 21.3638V8.15381L84.7033 1.54932L73.2629 8.15479ZM97.3361 22.0532L97.2609 22.0962L84.7785 29.3032L84.7033 29.3462L84.6281 29.3032L72.1457 22.0962L72.0705 22.0532V7.46631L72.1457 7.42334L84.6281 0.216309L84.7033 0.17334L84.7785 0.216309L97.2609 7.42334L97.3361 7.46631V22.0532Z" fill="black" stroke="black" stroke-width="0.3"></path><path d="M25.321 8.15479V21.3628L36.7614 27.9683L48.2018 21.3638V8.15381L36.7614 1.54932L25.321 8.15479ZM49.3942 22.0532L49.319 22.0962L36.8366 29.3032L36.7614 29.3462L36.6862 29.3032L24.2038 22.0962L24.1286 22.0532V7.46631L24.2038 7.42334L36.6862 0.216309L36.7614 0.17334L36.8366 0.216309L49.319 7.42334L49.3942 7.46631V22.0532Z" fill="black" stroke="black" stroke-width="0.3"></path><path d="M105.335 11.5597H112.812V12.9328H106.861V14.6873H111.286V16.0604H106.861V17.815H112.812V19.188H105.335V11.5586V11.5597Z" fill="black" stroke="black" stroke-width="0.111542" stroke-miterlimit="10"></path><path d="M80.6545 11.5591H82.3019L84.8652 17.8154H85.018L87.5812 11.5591H89.1986L86.0709 19.1885H83.7821L80.6545 11.5591Z" fill="black" stroke="black" stroke-width="0.111542" stroke-miterlimit="10"></path><path d="M34.4316 10.9683V14.0959H39.0093V10.9683H40.5351V18.5977H39.0093V15.4701H34.4316V18.5977H32.9057V10.9683H34.4316Z" fill="black" stroke="black" stroke-width="0.111542" stroke-miterlimit="10"></path><path d="M15.4225 14.6915C15.7382 14.8544 15.9825 15.073 16.1554 15.3474C16.3283 15.6218 16.4153 15.943 16.4153 16.3089C16.4153 17.0004 16.2067 17.5548 15.7895 17.972C15.3724 18.3891 14.818 18.5977 14.1264 18.5977H8.78583V10.9683H13.8208C14.5124 10.9683 15.0667 11.1768 15.4839 11.594C15.9011 12.0112 16.1096 12.5655 16.1096 13.2571C16.1096 13.8672 15.881 14.3457 15.4225 14.6915ZM13.8208 12.3425H10.3117V14.097H13.8208C14.055 14.097 14.2402 14.0278 14.3774 13.8906C14.5146 13.7535 14.5838 13.5683 14.5838 13.3341V13.1054C14.5838 12.8712 14.5146 12.686 14.3774 12.5488C14.2402 12.4116 14.0539 12.3425 13.8208 12.3425ZM14.1253 15.4701H10.3106V17.2246H14.1253C14.3596 17.2246 14.5447 17.1566 14.6819 17.0183C14.8191 16.8811 14.8883 16.6959 14.8883 16.4617V16.233C14.8883 15.9988 14.8191 15.8136 14.6819 15.6764C14.5447 15.5392 14.3584 15.4701 14.1253 15.4701Z" fill="black" stroke="black" stroke-width="0.111542" stroke-miterlimit="10"></path><path d="M61.5798 10.2822V17.9117H60.0539V10.2822H61.5798Z" fill="black" stroke="black" stroke-width="0.111542" stroke-miterlimit="10"></path></svg>