<svg xmlns="http://www.w3.org/2000/svg" id="Layer_1" viewBox="0 0 2325.66 640.68"><path d="M993.4,322.31c62.77,19.8,94.16,61.57,94.16,125.31,0,40.56-13.71,73.82-41.11,99.77-27.41,25.96-72.86,38.93-136.35,38.93h-295.89V66.99h279.59c62.77,0,107.68,12.85,134.72,38.57,27.04,25.71,40.56,59.34,40.56,100.86,0,56.5-25.23,95.13-75.69,115.89ZM885.11,149.56h-175.29v136.54h175.29c30.66,0,52.99-5.37,67-16.12,14-10.74,21-27.7,21-50.88s-7.01-41.77-21-52.87c-14.01-11.1-36.34-16.66-67-16.66ZM897.79,504.12c33.07,0,57.04-5.85,71.89-17.57,14.85-11.71,22.27-29.88,22.27-54.5s-7.55-42.07-22.63-53.78c-15.09-11.71-38.93-17.57-71.53-17.57h-187.96v143.42h187.96Z"></path><path d="M1168.69,586.33V66.99h241.92c83.54,0,148.54,23.12,195.02,69.35,46.48,46.24,69.72,109.68,69.72,190.32s-23.24,143.48-69.72,189.95c-46.48,46.48-111.49,69.72-195.02,69.72h-241.92ZM1264.3,501.94h143.42c56.98,0,99.78-15.09,128.39-45.27,28.61-30.18,42.92-73.46,42.92-129.84s-14.37-99.65-43.1-129.84c-28.74-30.18-71.47-45.27-128.21-45.27h-143.42v350.21Z"></path><path d="M2019.4,509.91c84.98,0,139.43-37.06,163.33-111.18h92.71c-11.83,63.74-40.14,112.81-84.93,147.22-44.79,34.41-101.83,51.61-171.12,51.61-85.47,0-153.19-25.71-203.17-77.14-49.98-51.43-74.97-115.95-74.97-193.58s24.99-142.15,74.97-193.58c49.98-51.43,117.7-77.14,203.17-77.14,69.29,0,126.27,17.15,170.94,51.43,44.66,34.29,73.03,83.42,85.11,147.4h-92.71c-23.66-74.12-78.11-111.3-163.33-111.55-57.46,0-102.13,17.08-134,51.25-31.87,34.17-47.81,78.17-47.81,132.01s15.94,97.24,47.81,131.64c31.87,34.41,76.53,51.61,134,51.61Z"></path><path d="M50.21,66.99h0c0,46.8,37.94,84.74,84.74,84.74h110.82v.02h94.89v-.02h195.93v-84.74H50.21Z"></path><path d="M275.13,206.72c-22.24,17.04-35.02,41.85-35.02,67.97v319.78l106.59-81.66V151.89l-71.56,54.83Z"></path></svg>