<svg width="852" height="230" viewBox="0 0 852 230" fill="none" xmlns="http://www.w3.org/2000/svg">
<path d="M119.97 5.94637C123.67 -1.45363 135.47 -2.05363 140.07 4.74637C143.07 9.24637 145.57 14.0464 148.37 18.7464C152.37 18.7464 156.37 18.7464 160.37 18.7464C160.27 13.9464 160.47 8.24637 164.57 4.94637C169.37 1.04637 175.97 2.14637 181.67 1.94637C189.77 2.24637 198.07 1.04637 205.97 3.34637C211.67 4.34637 216.77 7.74637 220.27 12.2464C220.67 7.84637 223.87 3.74637 228.17 2.74637C232.87 1.34637 237.87 2.04637 242.67 1.84637C247.37 1.74637 252.77 1.94637 256.27 5.64637C259.67 9.04637 259.57 14.1464 259.97 18.6464C263.27 18.7464 266.67 18.6464 269.97 18.6464C274.37 12.3464 280.77 7.44637 287.77 4.34637C297.87 0.546373 309.17 -1.25363 319.77 1.74637C328.77 3.34637 337.07 8.14637 343.37 14.7464C344.97 16.3464 345.87 19.0464 348.57 18.7464C354.77 9.84637 364.67 3.44637 375.37 1.54637C381.37 -0.0536283 387.67 -0.253628 393.67 1.24637C398.07 2.34637 402.77 3.04637 406.77 5.44637C411.67 1.04637 418.77 1.94637 424.87 1.84637C430.57 1.64637 437.67 1.84637 441.17 7.14637C444.67 2.44637 450.77 1.44637 456.27 1.84637C462.87 2.24637 469.77 0.846372 476.07 3.14637C478.67 4.24637 480.37 6.64637 481.87 8.84637C485.07 6.44637 488.57 4.44637 492.37 3.14637C499.87 0.846372 507.77 -0.853629 515.57 0.746371C520.57 1.84637 525.77 2.64637 530.27 5.24637C535.27 0.746372 542.47 1.84637 548.67 1.64637C553.77 1.54637 559.97 1.54637 563.67 5.74637C565.67 7.64637 565.97 10.4464 566.67 12.9464C567.17 9.94637 567.87 6.74637 570.47 4.74637C575.17 0.746372 581.67 1.64637 587.37 1.54637C592.47 1.54637 598.37 1.14637 602.47 4.84637C606.17 8.24637 606.47 13.6464 606.37 18.3464C608.47 18.3464 610.57 18.3464 612.67 18.3464C615.07 13.0464 616.07 6.24637 621.67 3.24637C627.27 0.746372 633.47 1.84637 639.37 1.64637C644.17 1.54637 649.67 1.54637 653.27 5.24637C656.67 8.94637 657.67 13.9464 659.67 18.4464C661.77 18.4464 663.87 18.4464 665.97 18.4464C665.87 13.9464 666.07 8.64637 669.47 5.24637C673.07 1.64637 678.47 1.54637 683.27 1.64637C689.47 1.84637 696.47 0.646372 701.67 4.64637C706.37 1.04637 712.57 1.64637 718.17 1.64637C723.67 1.54637 730.27 1.14637 734.37 5.54637C737.57 9.24637 740.57 13.0464 743.67 16.8464C743.67 12.1464 744.57 6.54637 748.97 3.84637C753.97 0.746373 760.17 1.74637 765.77 1.54637C770.57 1.44637 776.17 1.44637 779.87 5.04637C782.67 7.64637 783.37 11.7464 783.57 15.3464C783.57 33.9464 783.57 52.4464 783.57 71.0464C783.47 74.7464 782.77 78.8464 779.87 81.4464C776.47 84.8464 771.27 84.9464 766.67 84.8464C761.07 84.6464 755.17 85.6464 749.87 83.3464C746.37 81.3464 744.27 77.7464 741.67 74.7464C740.07 74.7464 738.57 74.7464 737.07 74.7464C736.57 79.0464 733.47 83.0464 729.17 84.0464C724.77 85.3464 720.07 84.6464 715.57 84.8464C710.87 84.9464 705.67 84.9464 701.67 81.9464C698.27 84.5464 693.67 85.0464 689.57 84.8464C684.17 84.7464 678.57 85.3464 673.27 83.8464C666.97 85.5464 660.37 84.6464 653.97 84.8464C653.67 91.0468 655.17 98.1468 651.17 103.547C648.77 106.947 644.37 107.347 640.67 108.047C640.77 119.747 640.77 131.547 640.67 143.247C647.77 143.547 655.57 141.847 662.07 145.647C665.47 143.647 669.57 143.047 673.47 143.247C679.17 143.447 685.07 142.547 690.47 144.647C693.67 146.147 695.67 149.147 697.77 151.747C699.87 151.747 701.87 151.747 703.97 151.747C705.47 145.947 711.67 143.047 717.37 143.247C723.57 143.547 729.87 142.447 735.87 144.447C739.07 145.647 741.47 148.547 742.47 151.747C744.47 151.747 746.47 151.747 748.57 151.747C752.47 148.847 756.57 146.047 761.37 144.547C768.27 142.547 775.57 140.747 782.87 142.047C787.67 142.947 792.57 144.047 797.17 145.747C800.37 143.747 804.27 143.147 808.07 143.247C818.27 143.247 828.47 143.247 838.67 143.247C842.47 143.547 846.57 144.547 848.97 147.847C852.47 152.247 851.57 158.247 851.67 163.447C851.87 167.247 851.47 171.147 849.77 174.647C851.17 179.147 850.47 183.847 850.67 188.547C850.77 190.847 850.27 192.947 849.77 195.147C851.47 198.647 851.87 202.647 851.67 206.547C851.57 211.747 852.47 217.847 848.87 222.147C846.47 225.347 842.37 226.347 838.67 226.547C828.17 226.547 817.77 226.547 807.27 226.547C803.77 226.647 800.27 225.947 797.27 224.147C788.17 226.947 778.37 229.747 768.87 227.147C761.07 225.847 753.87 222.347 747.97 217.247C746.27 217.247 744.57 217.247 742.87 217.247C742.07 221.247 738.97 224.947 734.87 225.747C731.37 226.847 727.57 226.447 723.97 226.447C719.27 226.447 714.37 226.847 709.87 224.947C706.67 223.147 704.67 219.947 702.27 217.247C700.47 217.247 698.67 217.247 696.87 217.247C695.77 223.447 689.47 226.747 683.57 226.547C676.47 226.147 668.77 227.847 662.27 224.247C659.47 225.847 656.27 226.647 653.07 226.547C642.57 226.547 632.07 226.547 621.67 226.547C619.57 226.547 617.57 225.847 615.57 225.647C609.67 227.247 603.57 226.347 597.57 226.547C592.77 226.647 587.47 226.747 583.37 223.647C579.57 226.647 574.37 226.647 569.77 226.547C563.97 226.447 557.57 227.347 552.37 224.147C549.47 225.847 546.07 226.547 542.77 226.547C531.97 226.447 521.27 226.647 510.47 226.447C505.07 226.347 499.47 223.047 498.67 217.247C495.77 217.147 492.87 217.147 489.97 217.247C489.17 221.247 485.97 224.947 481.87 225.747C477.77 226.947 473.37 226.347 469.17 226.447C464.37 226.547 458.97 226.747 454.87 223.647C450.97 226.547 445.87 226.547 441.27 226.447C435.97 226.347 430.47 227.047 425.57 224.947C422.37 223.247 420.37 219.947 418.07 217.247C416.27 217.247 414.47 217.247 412.67 217.247C411.67 223.147 405.87 226.647 400.17 226.447C393.57 226.147 386.67 227.347 380.17 225.247C376.97 223.847 374.47 220.847 373.87 217.247C371.67 217.247 369.17 216.847 367.47 218.647C360.47 224.447 351.47 226.647 342.67 227.947C335.17 228.847 327.67 227.147 320.47 225.047C315.37 223.447 310.87 220.447 306.77 217.247C306.07 217.247 304.87 217.247 304.17 217.247C302.77 220.447 300.37 223.347 296.97 224.347C292.97 225.747 288.77 226.647 284.67 227.447C276.37 229.147 267.97 226.947 260.17 224.347C257.57 228.047 253.07 229.647 248.67 229.647C169.97 229.647 91.2702 229.647 12.6702 229.647C8.77024 229.547 4.47024 228.347 2.17024 224.847C-1.02976 220.447 -0.429757 214.547 2.27024 210.147C41.2702 142.447 80.4702 74.0464 119.97 5.94637ZM129.67 12.0464C89.8702 80.8464 50.0702 149.647 10.5702 218.647C90.4702 218.747 170.47 218.647 250.37 218.647C210.97 149.947 171.27 81.4464 131.67 12.8464C131.17 12.3464 130.17 10.0464 129.67 12.0464ZM302.07 12.3464C292.77 13.5464 283.67 18.4464 278.47 26.3464C270.77 37.4464 271.67 53.7464 280.77 63.8464C290.77 75.3464 308.37 77.9464 322.27 72.7464C330.67 69.6464 337.77 62.9464 340.87 54.4464C344.27 45.3464 343.17 34.7464 337.77 26.6464C330.27 15.0464 315.27 10.4464 302.07 12.3464ZM362.77 20.0464C353.07 27.9464 349.37 41.9464 353.57 53.6464C357.07 63.7464 365.97 71.6464 376.27 74.1464C384.17 76.3464 392.47 74.9464 400.07 72.2464C400.07 65.9464 400.17 59.6464 400.07 53.3464C397.57 55.5464 394.97 57.7464 391.67 58.8464C385.47 61.1464 377.97 59.4464 373.57 54.5464C368.37 48.9464 368.07 39.6464 372.67 33.6464C376.67 28.2464 384.17 26.1464 390.57 27.9464C394.37 28.8464 397.27 31.5464 400.07 34.0464C400.17 27.6464 400.17 21.3464 400.07 15.0464C387.87 9.84637 372.87 11.1464 362.77 20.0464ZM475.37 40.9464C474.07 54.2464 482.47 67.3464 494.67 72.4464C503.77 76.6464 514.37 75.7464 523.47 72.2464C523.67 65.9464 523.57 59.7464 523.57 53.4464C520.57 55.8464 517.57 58.4464 513.77 59.3464C507.57 61.1464 500.37 58.9464 496.37 53.7464C491.57 47.8464 491.77 38.6464 496.77 32.9464C501.27 27.7464 509.07 26.1464 515.47 28.4464C518.67 29.5464 521.07 31.9464 523.57 34.1464C523.57 27.8464 523.67 21.4464 523.47 15.1464C517.17 12.7464 510.37 11.4464 503.67 12.4464C489.27 13.8464 476.27 26.1464 475.37 40.9464ZM171.67 13.6464C171.67 33.6464 171.67 53.5464 171.67 73.5464C181.27 73.5464 190.87 73.7464 200.47 73.5464C206.57 73.3464 213.07 71.2464 216.77 66.0464C220.07 61.3464 220.47 54.9464 218.57 49.7464C216.87 45.0464 212.07 42.6464 207.47 41.6464C214.87 37.1464 215.77 26.3464 211.07 19.6464C207.87 15.1464 201.97 13.8464 196.77 13.7464C188.47 13.5464 180.07 13.5464 171.67 13.6464ZM231.27 13.6464C231.27 33.6464 231.27 53.5464 231.27 73.5464C243.37 73.6464 255.37 73.5464 267.47 73.5464C267.47 69.0464 267.47 64.5464 267.47 60.1464C260.97 60.0464 254.47 60.1464 247.97 60.1464C247.97 44.6464 247.97 29.1464 247.97 13.6464C242.37 13.5464 236.87 13.5464 231.27 13.6464ZM414.67 13.6464C414.67 33.6464 414.67 53.6464 414.67 73.5464C420.27 73.5464 425.87 73.5464 431.37 73.5464C431.37 65.1464 431.37 56.7464 431.37 48.2464C438.17 56.6464 445.07 65.0464 451.87 73.4464C459.07 73.5464 466.37 73.5464 473.57 73.4464C464.57 62.9464 455.47 52.4464 446.47 41.9464C454.77 32.4464 463.07 23.0464 471.27 13.5464C464.37 13.4464 457.57 13.5464 450.67 13.4464C444.17 21.4464 437.77 29.4464 431.37 37.5464C431.37 29.5464 431.37 21.5464 431.37 13.4464C425.87 13.5464 420.27 13.5464 414.67 13.6464ZM538.07 13.6464C538.07 33.6464 538.07 53.5464 538.07 73.5464C543.67 73.6464 549.27 73.5464 554.77 73.5464C554.77 65.3464 554.77 57.2464 554.77 49.1464C562.37 49.0464 569.97 49.1464 577.57 49.1464C577.57 57.3464 577.47 65.4464 577.57 73.6464C583.17 73.6464 588.77 73.6464 594.37 73.6464C594.37 53.6464 594.37 33.7464 594.37 13.7464C588.77 13.6464 583.17 13.7464 577.57 13.7464C577.47 21.4464 577.57 29.0464 577.47 36.7464C569.87 36.7464 562.27 36.7464 554.67 36.7464C554.67 29.0464 554.67 21.4464 554.67 13.7464C549.27 13.5464 543.67 13.5464 538.07 13.6464ZM602.97 73.5464C608.87 73.6464 614.87 73.5464 620.77 73.6464C622.07 70.2464 623.27 66.8464 624.47 63.3464C631.97 63.1464 639.57 63.3464 647.07 63.2464C648.37 66.6464 649.57 70.1464 650.77 73.5464C656.77 73.5464 662.67 73.5464 668.67 73.5464C660.67 53.5464 652.77 33.5464 644.87 13.6464C638.77 13.6464 632.77 13.5464 626.67 13.7464C618.87 33.6464 610.87 53.5464 602.97 73.5464ZM677.17 13.6464C677.17 33.6464 677.17 53.5464 677.17 73.5464C682.77 73.6464 688.37 73.6464 694.07 73.5464C693.97 53.5464 693.97 33.6464 694.07 13.6464C688.47 13.5464 682.77 13.5464 677.17 13.6464ZM708.97 13.6464C708.97 33.6464 708.97 53.6464 708.97 73.5464C714.57 73.5464 720.17 73.5464 725.67 73.5464C725.67 61.6464 725.67 49.6464 725.67 37.6464C735.47 49.6464 745.27 61.5464 754.97 73.4464C760.57 73.5464 766.07 73.4464 771.67 73.4464C771.67 53.4464 771.77 33.4464 771.57 13.4464C766.07 13.5464 760.47 13.4464 754.97 13.5464C754.97 25.4464 754.97 37.4464 754.97 49.3464C745.07 37.4464 735.37 25.3464 725.47 13.4464C719.97 13.6464 714.47 13.5464 708.97 13.6464ZM551.27 91.1468C547.47 97.9468 547.37 107.847 553.57 113.247C559.17 118.147 567.27 118.147 573.37 122.147C576.57 124.547 574.87 129.747 571.37 130.847C564.77 132.847 558.07 129.447 553.07 125.347C550.67 129.647 548.37 133.847 545.97 138.047C554.97 144.047 566.47 146.247 576.97 143.747C582.07 142.547 586.87 139.547 589.67 134.947C592.77 129.647 593.27 122.747 590.97 117.047C588.47 111.147 582.17 108.147 576.37 106.447C572.97 105.247 569.07 104.847 566.47 102.047C564.77 99.7468 566.37 96.4468 568.97 95.5468C573.97 93.5468 579.27 96.0468 583.27 98.8468C585.37 94.7468 587.67 90.6468 589.77 86.4464C582.57 83.1464 574.57 81.0464 566.57 81.8464C560.57 82.4464 554.27 85.5464 551.27 91.1468ZM224.27 83.2464C224.27 103.147 224.27 123.147 224.27 143.047C229.77 143.047 235.27 143.047 240.77 143.047C240.77 135.247 240.77 127.447 240.77 119.647C246.67 119.647 252.57 119.647 258.57 119.647C258.47 115.247 258.67 110.847 258.47 106.447C252.57 105.947 246.67 106.347 240.77 106.247C240.77 103.047 240.77 99.8468 240.77 96.6468C247.27 96.6468 253.77 96.6468 260.27 96.6468C260.27 92.2468 260.37 87.7468 260.17 83.3464C248.17 83.2464 236.17 83.3464 224.27 83.2464ZM271.67 83.3464C271.67 95.2468 271.67 107.147 271.67 119.047C271.77 125.247 272.87 131.947 276.97 136.847C281.27 142.147 288.17 144.047 294.67 144.647C302.47 145.147 310.97 144.647 317.57 139.947C323.57 135.647 325.77 127.947 326.07 120.847C326.17 108.347 326.07 95.8468 326.07 83.3464C320.67 83.3464 315.27 83.3464 309.87 83.3464C309.57 95.5468 309.97 107.747 309.67 119.947C309.67 124.147 307.87 128.947 303.47 130.247C299.37 131.347 294.17 131.347 290.97 128.147C288.27 125.247 288.17 120.947 288.07 117.147C287.97 105.847 288.07 94.5468 288.07 83.2464C282.67 83.2464 277.17 83.1464 271.67 83.3464ZM335.27 83.2464C335.27 87.7468 335.27 92.1468 335.27 96.6468C339.77 96.6468 344.17 96.6468 348.67 96.6468C348.67 112.147 348.67 127.547 348.67 143.047C354.17 143.047 359.57 143.047 365.07 143.047C365.07 127.547 365.07 112.147 365.07 96.6468C369.47 96.6468 373.87 96.6468 378.37 96.6468C378.37 92.2468 378.37 87.7468 378.37 83.3464C363.97 83.2464 349.57 83.1464 335.27 83.2464ZM387.37 83.2464C387.27 95.1468 387.37 107.047 387.37 118.847C387.37 125.547 388.77 132.747 393.47 137.747C398.37 142.747 405.57 144.447 412.37 144.647C419.77 144.947 427.87 144.147 433.87 139.447C439.47 135.047 441.47 127.647 441.77 120.747C441.87 108.247 441.77 95.6468 441.87 83.1464C436.47 83.2464 431.07 83.2464 425.57 83.2464C425.27 95.2468 425.57 107.247 425.37 119.247C425.27 122.747 424.47 126.747 421.57 128.947C418.27 131.347 413.77 131.147 409.97 130.147C405.67 128.747 403.87 123.947 403.97 119.747C403.67 107.547 403.87 95.3468 403.87 83.2464C398.27 83.3464 392.77 83.3464 387.37 83.2464ZM456.87 83.2464C456.67 103.147 456.87 123.047 456.77 142.947C462.27 142.947 467.67 142.947 473.17 142.947C473.17 135.447 473.17 127.847 473.17 120.347C478.27 127.847 483.37 135.447 488.37 142.947C495.17 142.947 502.07 142.947 508.87 142.947C502.37 134.847 495.87 126.747 489.37 118.647C492.87 117.547 496.57 116.047 498.97 113.147C503.57 107.647 503.77 99.3468 500.77 93.0468C497.67 86.3464 490.07 83.0464 483.07 83.1464C474.37 83.3464 465.67 83.3464 456.87 83.2464ZM517.77 83.2464C517.57 103.147 517.77 123.047 517.67 142.947C523.17 142.947 528.67 142.947 534.17 142.947C534.17 123.047 534.17 103.147 534.17 83.2464C528.57 83.1464 523.17 83.3464 517.77 83.2464ZM599.17 83.3464C599.07 87.7468 599.07 92.2468 599.17 96.6468C603.67 96.6468 608.07 96.6468 612.57 96.6468C612.57 112.147 612.57 127.547 612.57 143.047C618.07 143.047 623.57 143.047 629.07 143.047C629.07 127.547 629.07 112.147 629.07 96.6468C633.47 96.6468 637.87 96.6468 642.27 96.6468C642.27 92.1468 642.27 87.7468 642.27 83.2464C627.77 83.2464 613.47 83.3464 599.17 83.3464ZM264.07 155.547C254.17 159.347 246.17 168.447 244.37 179.047C243.47 185.047 243.87 191.347 246.37 196.947C250.67 206.847 260.07 214.147 270.57 216.347C277.97 218.047 285.77 216.647 292.77 214.047C292.77 207.647 292.97 201.347 292.67 194.947C290.87 195.747 289.27 196.947 287.57 198.047C282.17 201.847 274.47 202.247 268.97 198.547C261.87 194.047 260.07 183.647 264.47 176.747C268.27 170.347 276.77 167.647 283.77 169.947C287.27 170.947 289.87 173.747 292.67 175.947C292.87 169.547 292.77 163.147 292.77 156.747C283.97 152.547 273.27 151.747 264.07 155.547ZM329.37 153.747C321.27 155.147 313.57 159.347 308.57 165.947C299.97 176.747 300.07 193.547 308.97 204.247C318.57 216.247 336.07 219.747 350.37 215.147C358.47 212.447 365.77 206.747 369.47 198.947C372.47 193.147 372.97 186.447 372.17 180.147C370.67 170.647 364.27 162.247 355.77 157.747C347.77 153.247 338.27 152.247 329.37 153.747ZM746.97 170.147C742.27 178.947 742.17 190.047 746.77 198.847C751.37 207.847 760.27 214.247 770.07 216.247C777.47 217.947 785.17 216.547 792.17 213.947C792.17 207.747 792.17 201.547 792.17 195.447C791.77 195.447 790.97 195.347 790.47 195.347C787.67 197.747 784.57 199.947 780.97 200.647C775.17 202.047 768.47 200.047 764.87 195.147C760.37 189.347 760.47 180.547 765.17 174.947C769.67 169.447 777.77 167.647 784.37 170.147C787.37 171.347 789.57 173.747 792.17 175.647C792.27 169.347 792.37 163.047 792.17 156.847C788.07 154.347 783.07 153.547 778.27 153.147C765.77 152.347 752.87 159.047 746.97 170.147ZM383.67 154.947C383.67 175.047 383.67 195.047 383.77 215.047C389.57 215.547 395.27 215.247 401.07 215.347C401.17 203.547 401.07 191.747 401.07 179.847C410.87 191.547 420.17 203.647 430.27 215.047C435.87 215.647 441.47 215.147 447.07 215.247C447.07 196.247 447.07 177.347 447.17 158.347C447.17 157.247 447.07 156.147 446.87 155.047C441.17 154.247 435.47 154.847 429.77 154.747C429.67 166.547 429.77 178.447 429.77 190.247C420.57 179.047 411.37 167.847 402.27 156.647C401.47 155.947 400.87 154.747 399.77 154.847C394.37 154.647 389.07 154.847 383.67 154.947ZM461.07 154.847C461.07 174.947 461.07 194.947 461.07 215.047C466.87 215.547 472.67 215.247 478.47 215.347C478.47 207.547 478.47 199.747 478.47 191.947C484.37 191.947 490.27 191.947 496.07 191.947C496.07 187.347 496.07 182.847 496.07 178.247C490.17 177.547 484.27 178.047 478.37 177.947C478.37 174.947 478.37 171.847 478.37 168.847C484.87 168.847 491.27 168.747 497.77 168.847C497.77 164.247 497.77 159.747 497.77 155.147C485.67 154.447 473.37 154.947 461.07 154.847ZM508.47 154.847C508.47 174.947 508.47 195.047 508.57 215.047C520.77 215.547 532.97 215.147 545.17 215.247C544.97 210.747 545.57 206.147 544.87 201.647C538.57 200.847 532.17 201.547 525.87 201.247C525.87 198.147 525.87 194.947 525.87 191.747C531.97 191.747 537.97 191.747 544.07 191.747C544.07 187.147 544.17 182.547 543.97 177.947C537.97 177.547 531.87 177.847 525.87 177.747C525.87 174.647 525.87 171.647 525.87 168.547C532.27 168.547 538.67 168.547 545.07 168.547C544.97 164.247 545.27 159.847 544.97 155.547C544.37 154.247 542.57 154.847 541.37 154.647C530.47 154.847 519.47 154.747 508.47 154.847ZM558.07 154.847C558.07 174.947 558.07 194.947 558.07 215.047C563.87 215.647 569.67 215.247 575.47 215.347C575.47 208.147 575.47 200.947 575.47 193.847C580.37 200.847 584.77 208.347 590.07 215.047C597.07 215.747 604.17 215.247 611.17 215.347C604.67 207.247 598.27 199.047 591.67 191.047C595.67 189.847 599.87 187.947 602.27 184.247C607.17 176.447 605.57 164.947 598.07 159.347C593.97 156.247 588.77 154.947 583.67 154.947C575.17 154.847 566.57 154.747 558.07 154.847ZM618.37 154.847C618.27 174.947 618.37 195.047 618.37 215.047C630.57 215.647 642.87 215.147 655.17 215.347C655.17 210.847 655.17 206.247 655.17 201.747C648.77 201.147 642.37 201.647 635.97 201.447C635.97 198.347 635.97 195.147 635.97 192.047C641.97 192.047 648.07 192.047 654.07 192.047C654.07 187.447 654.17 182.847 653.97 178.147C647.97 177.747 641.97 178.047 635.87 177.947C635.87 174.847 635.87 171.847 635.87 168.847C642.27 168.847 648.67 168.847 655.07 168.847C655.07 164.247 655.17 159.747 654.97 155.147C642.87 154.447 630.67 154.947 618.37 154.847ZM667.97 154.847C667.87 174.947 667.97 195.047 667.97 215.147C673.77 215.647 679.57 215.347 685.37 215.447C685.37 203.647 685.37 191.847 685.37 180.147C693.37 189.947 701.37 199.647 709.37 209.447C711.07 211.447 712.57 213.647 714.57 215.347C720.17 215.747 725.77 215.447 731.37 215.547C731.37 195.447 731.57 175.347 731.37 155.347C725.57 154.847 719.77 155.147 713.97 155.047C713.97 166.847 713.97 178.647 713.97 190.447C704.27 178.747 694.97 166.647 684.87 155.247C679.27 154.447 673.57 154.947 667.97 154.847ZM803.17 154.847C803.07 174.947 803.17 194.947 803.17 214.947C815.37 215.547 827.57 215.047 839.77 215.247C839.77 210.747 839.77 206.247 839.77 201.747C833.37 201.147 826.97 201.547 820.57 201.447C820.57 198.247 820.57 195.047 820.57 191.947C826.57 191.947 832.67 191.947 838.67 191.947C838.67 187.447 838.67 182.947 838.67 178.447C832.67 177.947 826.57 178.247 820.57 178.147C820.57 175.047 820.57 171.947 820.57 168.847C826.97 168.847 833.37 168.847 839.77 168.847C839.77 164.347 839.77 159.847 839.77 155.347C827.57 154.547 815.37 155.047 803.17 154.847Z" fill="white"/>
<path d="M188.469 25.7461C190.769 25.8461 193.069 25.6461 195.269 26.4461C199.269 27.7461 199.569 34.3461 195.769 36.1461C193.469 37.2461 190.869 36.9461 188.469 37.0461C188.469 33.3461 188.469 29.5461 188.469 25.7461Z" fill="white"/>
<path d="M303.268 27.9483C311.468 25.6483 321.268 29.9483 324.268 38.1483C326.268 43.4483 325.168 49.8483 321.368 54.0483C316.368 59.7483 307.568 61.5483 300.668 58.4483C294.868 56.0483 290.568 50.0483 290.768 43.6483C290.568 36.2483 296.268 29.6483 303.268 27.9483Z" fill="white"/>
<path d="M635.869 32.3477C638.169 38.6477 640.469 44.8477 642.769 51.1477C638.169 51.1477 633.569 51.1477 628.969 51.1477C631.269 44.8477 633.569 38.5477 635.869 32.3477Z" fill="white"/>
<path d="M188.471 48.9453C192.371 49.0453 196.471 48.6453 200.071 50.3453C203.871 52.0453 203.671 58.4453 199.771 60.0453C196.171 61.5453 192.171 61.2453 188.371 61.3453C188.471 57.1453 188.471 53.0453 188.471 48.9453Z" fill="white"/>
<path d="M53.1719 194.948C78.9719 150.348 104.772 105.648 130.472 60.8477C156.172 105.548 181.972 150.248 207.772 194.948C156.172 194.848 104.672 194.848 53.1719 194.948Z" fill="white"/>
<path d="M473.172 95.3478C476.572 95.4478 480.372 95.1478 483.372 97.2478C486.972 99.7478 486.872 105.748 483.172 108.148C480.172 110.148 476.472 109.848 473.172 109.848C473.172 105.048 473.172 100.148 473.172 95.3478Z" fill="white"/>
<path d="M575.469 167.645C578.469 167.845 581.869 167.345 584.569 169.145C588.169 171.545 587.969 177.645 584.369 179.945C581.769 181.645 578.469 181.445 575.469 181.645C575.469 176.845 575.469 172.245 575.469 167.645Z" fill="white"/>
<path d="M334.472 169.345C340.472 168.245 347.072 170.345 350.772 175.145C354.772 179.945 355.272 187.145 352.172 192.445C347.972 200.045 337.572 203.145 329.772 199.545C323.972 197.045 319.972 190.745 320.472 184.445C320.672 176.945 327.172 170.645 334.472 169.345Z" fill="white"/>
<path d="M129.67 12.0433C130.17 9.94328 131.17 12.3433 131.67 12.8433C171.27 81.4433 210.97 149.944 250.37 218.643C170.47 218.643 90.4703 218.743 10.5703 218.643C50.0703 149.643 89.8703 80.9433 129.67 12.0433ZM53.1703 194.943C104.67 194.843 156.27 194.943 207.77 194.943C181.87 150.343 156.17 105.543 130.47 60.8433C104.77 105.543 78.9703 150.243 53.1703 194.943Z" fill="#EB1C8C"/>
<path d="M264.07 155.542C273.27 151.742 283.97 152.542 292.87 156.542C292.87 162.942 292.97 169.342 292.77 175.742C289.97 173.542 287.37 170.742 283.87 169.742C276.87 167.542 268.37 170.142 264.57 176.542C260.17 183.542 261.97 193.842 269.07 198.342C274.57 202.042 282.27 201.642 287.67 197.842C289.27 196.642 290.87 195.542 292.77 194.742C293.07 201.142 292.87 207.442 292.87 213.842C285.77 216.442 278.07 217.842 270.67 216.142C260.17 213.942 250.77 206.642 246.47 196.742C243.97 191.142 243.57 184.842 244.47 178.842C246.17 168.442 254.17 159.442 264.07 155.542Z" fill="#EB1C8C"/>
<path d="M329.372 153.745C338.272 152.245 347.772 153.345 355.672 157.645C364.172 162.145 370.572 170.545 372.072 180.045C372.972 186.345 372.372 193.045 369.372 198.845C365.672 206.645 358.472 212.445 350.272 215.045C335.972 219.645 318.572 216.145 308.872 204.145C299.972 193.445 299.772 176.745 308.472 165.845C313.572 159.345 321.272 155.145 329.372 153.745ZM334.472 169.345C327.172 170.545 320.772 176.845 320.572 184.445C320.072 190.845 324.072 197.045 329.872 199.545C337.672 203.145 347.972 199.945 352.272 192.445C355.372 187.145 354.772 179.845 350.872 175.145C346.972 170.345 340.372 168.245 334.472 169.345Z" fill="#EB1C8C"/>
<path d="M746.972 170.143C752.872 158.943 765.772 152.243 778.372 153.143C783.072 153.543 788.072 154.343 792.272 156.843C792.472 163.143 792.372 169.343 792.272 175.643C789.772 173.743 787.472 171.343 784.472 170.143C777.972 167.643 769.772 169.443 765.272 174.943C760.572 180.543 760.472 189.443 764.972 195.143C768.572 200.043 775.272 202.043 781.072 200.643C784.772 199.943 787.872 197.743 790.572 195.343C790.972 195.343 791.772 195.443 792.272 195.443C792.372 201.643 792.272 207.843 792.272 213.943C785.272 216.543 777.572 217.943 770.172 216.243C760.372 214.243 751.372 207.743 746.872 198.843C742.172 190.043 742.172 178.943 746.972 170.143Z" fill="#EB1C8C"/>
<path d="M383.672 154.944C388.972 154.844 394.372 154.644 399.672 154.944C400.872 154.844 401.472 156.044 402.172 156.744C411.372 167.944 420.472 179.144 429.672 190.344C429.672 178.544 429.672 166.644 429.672 154.844C435.372 155.044 441.172 154.444 446.772 155.144C446.972 156.244 447.072 157.344 447.072 158.444C446.972 177.444 446.972 196.344 446.972 215.344C441.372 215.244 435.672 215.744 430.172 215.144C420.172 203.744 410.772 191.644 400.972 179.944C400.972 191.744 400.972 203.544 400.972 215.444C395.172 215.344 389.372 215.744 383.672 215.144C383.672 194.944 383.672 174.944 383.672 154.944Z" fill="#EB1C8C"/>
<path d="M461.07 154.844C473.37 155.044 485.67 154.444 497.97 155.144C497.97 159.744 497.97 164.244 497.97 168.844C491.47 168.744 485.07 168.744 478.57 168.844C478.57 171.844 478.57 174.944 478.57 177.944C484.47 178.144 490.37 177.644 496.27 178.244C496.27 182.844 496.27 187.344 496.27 191.944C490.37 191.944 484.47 191.944 478.67 191.944C478.67 199.744 478.67 207.544 478.67 215.344C472.87 215.244 467.07 215.644 461.27 215.044C461.07 194.944 461.07 174.844 461.07 154.844Z" fill="#EB1C8C"/>
<path d="M508.469 154.845C519.469 154.745 530.469 154.845 541.469 154.845C542.569 155.045 544.369 154.445 545.069 155.745C545.369 160.045 545.069 164.445 545.169 168.745C538.769 168.745 532.369 168.745 525.969 168.745C525.969 171.845 525.969 174.845 525.969 177.945C531.969 178.045 538.069 177.745 544.069 178.145C544.269 182.745 544.169 187.345 544.169 191.945C538.069 191.945 532.069 191.945 525.969 191.945C525.969 195.045 525.969 198.245 525.969 201.445C532.269 201.745 538.669 201.045 544.969 201.845C545.669 206.345 545.069 210.845 545.269 215.445C533.069 215.345 520.869 215.745 508.669 215.245C508.469 194.945 508.369 174.945 508.469 154.845Z" fill="#EB1C8C"/>
<path d="M558.07 154.845C566.57 154.745 575.17 154.845 583.77 154.845C588.87 154.845 594.07 156.145 598.17 159.245C605.67 164.845 607.27 176.445 602.37 184.145C599.97 187.845 595.87 189.745 591.77 190.945C598.37 199.045 604.77 207.145 611.27 215.245C604.27 215.145 597.17 215.745 590.17 214.945C584.97 208.145 580.57 200.745 575.57 193.745C575.57 200.945 575.57 208.145 575.57 215.245C569.77 215.145 563.97 215.545 558.17 214.945C558.07 194.945 558.07 174.845 558.07 154.845ZM575.47 167.645C575.47 172.245 575.47 176.945 575.47 181.545C578.47 181.345 581.77 181.545 584.37 179.845C587.97 177.545 588.17 171.445 584.57 169.045C581.87 167.345 578.47 167.745 575.47 167.645Z" fill="#EB1C8C"/>
<path d="M618.371 154.843C630.571 155.043 642.871 154.543 655.071 155.143C655.171 159.743 655.171 164.243 655.171 168.843C648.771 168.843 642.371 168.843 635.971 168.843C635.971 171.843 635.971 174.943 635.971 177.943C641.971 178.043 647.971 177.743 654.071 178.143C654.171 182.743 654.171 187.343 654.171 192.043C648.171 192.043 642.071 192.043 636.071 192.043C636.071 195.143 636.071 198.343 636.071 201.443C642.471 201.643 648.871 201.143 655.271 201.743C655.371 206.243 655.271 210.843 655.271 215.343C642.971 215.243 630.771 215.743 618.471 215.043C618.371 194.943 618.371 174.843 618.371 154.843Z" fill="#EB1C8C"/>
<path d="M667.97 154.843C673.57 154.943 679.27 154.543 684.87 155.043C694.97 166.443 704.27 178.543 713.97 190.243C713.97 178.443 713.97 166.643 713.97 154.843C719.77 154.943 725.57 154.643 731.37 155.143C731.57 175.243 731.37 195.343 731.37 215.343C725.77 215.243 720.17 215.643 714.57 215.143C712.47 213.443 711.07 211.243 709.37 209.243C701.37 199.443 693.37 189.743 685.37 179.943C685.37 191.743 685.37 203.443 685.37 215.243C679.57 215.143 673.77 215.543 667.97 214.943C667.97 194.943 667.87 174.843 667.97 154.843Z" fill="#EB1C8C"/>
<path d="M803.169 154.843C815.369 155.043 827.569 154.543 839.769 155.143C839.769 159.643 839.769 164.143 839.769 168.643C833.369 168.643 826.969 168.643 820.569 168.643C820.569 171.743 820.569 174.843 820.569 177.943C826.569 178.043 832.669 177.643 838.669 178.243C838.669 182.743 838.669 187.243 838.669 191.743C832.569 191.743 826.569 191.743 820.569 191.743C820.569 194.943 820.569 198.143 820.569 201.243C826.969 201.343 833.369 200.943 839.769 201.543C839.769 206.043 839.769 210.543 839.769 215.043C827.569 214.843 815.369 215.343 803.169 214.743C803.169 194.943 803.069 174.943 803.169 154.843Z" fill="#EB1C8C"/>
<path d="M302.069 12.3468C315.369 10.4468 330.269 15.1468 337.769 26.7468C343.169 34.7468 344.269 45.4468 340.869 54.5468C337.769 63.0468 330.669 69.6468 322.269 72.8468C308.369 78.0468 290.869 75.4468 280.769 63.9468C271.669 53.8468 270.769 37.5468 278.469 26.4468C283.669 18.4468 292.769 13.5468 302.069 12.3468ZM303.269 27.9468C296.269 29.6468 290.669 36.2468 290.769 43.5468C290.569 49.9468 294.869 55.8468 300.669 58.3468C307.569 61.4468 316.369 59.6468 321.369 53.9468C325.169 49.7468 326.269 43.4468 324.269 38.0468C321.269 29.9468 311.469 25.6468 303.269 27.9468Z" fill="#5400BD"/>
<path d="M362.768 20.0445C372.868 11.1445 387.968 9.9445 400.068 15.0445C400.068 21.3445 400.168 27.7445 400.068 34.0445C397.368 31.4445 394.368 28.8445 390.568 27.9445C384.168 26.2445 376.668 28.2445 372.668 33.6445C367.968 39.6445 368.368 48.9445 373.568 54.5445C377.968 59.5445 385.468 61.2445 391.668 58.8445C394.868 57.7445 397.468 55.5445 400.068 53.3445C400.168 59.6445 400.168 65.9445 400.068 72.2445C392.468 74.9445 384.168 76.3445 376.268 74.1445C365.968 71.5445 357.068 63.6445 353.568 53.6445C349.368 41.9445 353.068 27.9445 362.768 20.0445Z" fill="#5400BD"/>
<path d="M475.367 40.9459C476.167 26.1459 489.167 13.8459 503.667 12.2459C510.367 11.2459 517.167 12.5459 523.467 14.9459C523.667 21.2459 523.567 27.6459 523.567 33.9459C521.067 31.7459 518.567 29.3458 515.467 28.2458C509.067 25.9458 501.267 27.5458 496.767 32.7458C491.767 38.4458 491.567 47.6459 496.367 53.5459C500.367 58.6459 507.567 60.8459 513.767 59.1459C517.567 58.2459 520.567 55.6458 523.567 53.2458C523.567 59.5458 523.667 65.7459 523.467 72.0459C514.267 75.5459 503.767 76.3458 494.667 72.2458C482.467 67.3458 474.067 54.2459 475.367 40.9459Z" fill="#5400BD"/>
<path d="M171.668 13.646C180.068 13.646 188.468 13.546 196.868 13.646C202.068 13.746 207.868 15.046 211.168 19.546C215.768 26.246 214.868 37.046 207.568 41.546C212.168 42.546 216.968 45.046 218.668 49.646C220.568 54.946 220.168 61.346 216.868 65.946C213.168 71.146 206.668 73.246 200.568 73.446C190.968 73.646 181.368 73.446 171.768 73.446C171.668 53.546 171.668 33.546 171.668 13.646ZM188.468 25.746C188.468 29.546 188.468 33.246 188.468 37.046C190.868 36.946 193.468 37.246 195.768 36.146C199.568 34.346 199.268 27.846 195.268 26.446C193.168 25.646 190.768 25.946 188.468 25.746ZM188.468 48.946C188.468 53.046 188.468 57.146 188.468 61.246C192.268 61.146 196.268 61.446 199.868 59.946C203.668 58.346 203.868 52.046 200.168 50.246C196.468 48.546 192.368 48.946 188.468 48.946Z" fill="#5400BD"/>
<path d="M231.27 13.6453C236.87 13.5453 242.47 13.5453 247.97 13.6453C247.97 29.1453 247.97 44.6453 247.97 60.1453C254.47 60.1453 260.97 60.1453 267.47 60.1453C267.47 64.6453 267.47 69.1453 267.47 73.5453C255.37 73.5453 243.37 73.6453 231.27 73.5453C231.27 53.5453 231.27 33.5453 231.27 13.6453Z" fill="#5400BD"/>
<path d="M414.668 13.6461C420.268 13.6461 425.868 13.6461 431.368 13.6461C431.368 21.6461 431.368 29.6461 431.368 37.7461C437.768 29.6461 444.168 21.6461 450.668 13.6461C457.568 13.6461 464.368 13.5461 471.268 13.7461C463.068 23.2461 454.768 32.6461 446.468 42.1461C455.468 52.6461 464.568 63.1461 473.568 73.6461C466.368 73.6461 459.068 73.7461 451.868 73.6461C445.068 65.2461 438.168 56.8461 431.368 48.4461C431.368 56.8461 431.368 65.2461 431.368 73.7461C425.768 73.7461 420.168 73.7461 414.668 73.7461C414.668 53.5461 414.668 33.5461 414.668 13.6461Z" fill="#5400BD"/>
<path d="M538.066 13.6453C543.666 13.5453 549.266 13.5453 554.766 13.6453C554.766 21.3453 554.766 28.9453 554.766 36.6453C562.366 36.6453 569.966 36.6453 577.566 36.6453C577.566 28.9453 577.466 21.3453 577.666 13.6453C583.266 13.6453 588.866 13.5453 594.466 13.6453C594.466 33.6453 594.466 53.5453 594.466 73.5453C588.866 73.6453 583.266 73.5453 577.666 73.5453C577.566 65.3453 577.666 57.2453 577.666 49.0453C570.066 49.0453 562.466 49.0453 554.866 49.0453C554.866 57.1453 554.866 65.3453 554.866 73.4453C549.266 73.4453 543.666 73.5453 538.166 73.4453C538.066 53.5453 538.066 33.6453 538.066 13.6453Z" fill="#5400BD"/>
<path d="M602.969 73.5469C610.869 53.5469 618.869 33.6469 626.769 13.6469C632.869 13.5469 638.869 13.6469 644.969 13.5469C652.969 33.5469 660.869 53.5469 668.769 73.4469C662.769 73.5469 656.869 73.4469 650.869 73.4469C649.669 70.0469 648.369 66.5469 647.169 63.1469C639.669 63.1469 632.069 63.0469 624.569 63.2469C623.369 66.6469 622.169 70.1469 620.869 73.5469C614.869 73.5469 608.869 73.6469 602.969 73.5469ZM635.869 32.3469C633.569 38.6469 631.269 44.8469 628.969 51.1469C633.569 51.1469 638.169 51.1469 642.769 51.1469C640.469 44.8469 638.169 38.5469 635.869 32.3469Z" fill="#5400BD"/>
<path d="M677.168 13.6453C682.768 13.5453 688.368 13.5453 694.068 13.6453C693.968 33.6453 694.068 53.5453 694.068 73.5453C688.468 73.6453 682.768 73.6453 677.168 73.5453C677.168 53.5453 677.168 33.6453 677.168 13.6453Z" fill="#5400BD"/>
<path d="M708.969 13.6445C714.469 13.6445 720.069 13.6445 725.569 13.6445C735.469 25.5444 745.169 37.5444 755.069 49.5444C755.069 37.6444 755.069 25.6444 755.069 13.7444C760.569 13.6444 766.169 13.7445 771.669 13.6445C771.869 33.6445 771.769 53.6445 771.769 73.6445C766.169 73.6445 760.669 73.6445 755.069 73.6445C745.269 61.7445 735.469 49.7444 725.769 37.8444C725.769 49.7444 725.769 61.7445 725.769 73.7445C720.169 73.7445 714.569 73.7445 709.069 73.7445C708.969 53.5445 708.969 33.5444 708.969 13.6445Z" fill="#5400BD"/>
<path d="M551.27 91.1448C554.37 85.5445 560.57 82.5445 566.67 81.7445C574.67 80.9445 582.67 83.0445 589.87 86.3445C587.67 90.4448 585.47 94.5448 583.37 98.7448C579.27 95.9448 573.97 93.4448 569.07 95.4448C566.57 96.3448 564.87 99.6448 566.57 101.945C569.07 104.745 573.07 105.145 576.47 106.345C582.27 108.145 588.47 111.045 591.07 116.945C593.37 122.645 592.87 129.545 589.77 134.845C587.07 139.445 582.17 142.445 577.07 143.645C566.57 146.245 555.07 144.045 546.07 137.945C548.47 133.745 550.77 129.445 553.17 125.245C558.17 129.345 564.87 132.745 571.47 130.745C574.97 129.645 576.77 124.445 573.47 122.045C567.37 117.945 559.27 118.045 553.67 113.145C547.37 107.745 547.47 97.8448 551.27 91.1448Z" fill="#8100BD"/>
<path d="M224.27 83.2461C236.27 83.3461 248.17 83.2461 260.17 83.3461C260.27 87.7458 260.27 92.2458 260.27 96.6458C253.77 96.6458 247.27 96.6458 240.77 96.6458C240.77 99.8458 240.77 103.046 240.77 106.246C246.67 106.446 252.57 105.946 258.47 106.446C258.67 110.846 258.47 115.246 258.57 119.646C252.67 119.646 246.77 119.646 240.77 119.646C240.77 127.446 240.77 135.246 240.77 143.046C235.27 143.046 229.77 143.046 224.27 143.046C224.27 123.146 224.27 103.146 224.27 83.2461Z" fill="#8100BD"/>
<path d="M271.668 83.3437C277.168 83.1437 282.668 83.2438 288.068 83.2438C288.068 94.5438 288.068 105.844 288.068 117.144C288.168 120.944 288.168 125.144 290.968 128.144C294.168 131.444 299.368 131.344 303.468 130.244C307.768 128.844 309.568 124.044 309.668 119.944C309.968 107.744 309.568 95.5437 309.868 83.3437C315.268 83.3437 320.668 83.3437 326.068 83.3437C326.068 95.8437 326.068 108.344 326.068 120.844C325.868 127.944 323.668 135.644 317.568 139.944C310.968 144.644 302.468 145.144 294.668 144.644C288.168 144.044 281.168 142.144 276.968 136.844C272.968 131.844 271.768 125.244 271.668 119.044C271.668 107.044 271.668 95.2437 271.668 83.3437Z" fill="#8100BD"/>
<path d="M335.268 83.2461C349.568 83.2461 363.968 83.2461 378.268 83.3461C378.368 87.7458 378.368 92.2458 378.268 96.6458C373.868 96.6458 369.468 96.6458 364.968 96.6458C364.968 112.146 364.968 127.546 364.968 143.046C359.468 143.046 354.068 143.046 348.568 143.046C348.568 127.546 348.568 112.146 348.568 96.6458C344.068 96.6458 339.668 96.6458 335.168 96.6458C335.268 92.1458 335.268 87.6458 335.268 83.2461Z" fill="#8100BD"/>
<path d="M387.37 83.2446C392.87 83.2446 398.27 83.2446 403.77 83.2446C403.87 95.4448 403.67 107.645 403.87 119.745C403.87 123.945 405.57 128.745 409.87 130.145C413.57 131.145 418.17 131.245 421.47 128.945C424.47 126.745 425.27 122.745 425.27 119.245C425.47 107.245 425.17 95.2448 425.47 83.2446C430.87 83.2446 436.27 83.2446 441.77 83.1446C441.67 95.6448 441.87 108.245 441.67 120.745C441.37 127.545 439.37 135.045 433.77 139.445C427.77 144.145 419.67 144.945 412.27 144.645C405.47 144.445 398.27 142.745 393.37 137.745C388.67 132.745 387.27 125.545 387.27 118.845C387.27 107.045 387.27 95.1448 387.37 83.2446Z" fill="#8100BD"/>
<path d="M456.87 83.2428C465.67 83.2428 474.37 83.2428 483.17 83.1428C490.27 83.0428 497.77 86.4428 500.87 93.0428C503.77 99.3428 503.57 107.643 499.07 113.143C496.67 116.043 492.97 117.543 489.47 118.643C495.97 126.743 502.47 134.843 508.97 142.943C502.17 142.943 495.27 142.943 488.47 142.943C483.37 135.443 478.37 127.843 473.27 120.343C473.27 127.843 473.27 135.443 473.27 142.943C467.77 142.943 462.37 142.943 456.87 142.943C456.87 123.143 456.67 103.243 456.87 83.2428ZM473.17 95.3428C473.17 100.143 473.17 105.043 473.17 109.843C476.57 109.743 480.27 110.043 483.17 108.143C486.77 105.743 486.87 99.7428 483.37 97.2428C480.37 95.1428 476.57 95.4428 473.17 95.3428Z" fill="#8100BD"/>
<path d="M517.77 83.2462C523.17 83.3462 528.67 83.0462 534.07 83.2462C534.17 103.146 534.07 123.046 534.07 142.946C528.57 142.946 523.07 142.946 517.57 142.946C517.67 123.146 517.57 103.246 517.77 83.2462Z" fill="#8100BD"/>
<path d="M599.17 83.3461C613.47 83.3461 627.87 83.2461 642.17 83.2461C642.17 87.7458 642.17 92.1458 642.17 96.6458C637.77 96.6458 633.37 96.6458 628.97 96.6458C628.97 112.146 628.97 127.546 628.97 143.046C623.47 143.046 617.97 143.046 612.47 143.046C612.47 127.546 612.47 112.146 612.47 96.6458C607.97 96.6458 603.57 96.6458 599.07 96.6458C599.07 92.1458 599.07 87.7458 599.17 83.3461Z" fill="#8100BD"/>
</svg>
