<svg width="648" height="124" viewBox="0 0 648 124" fill="none" xmlns="http://www.w3.org/2000/svg">
<path d="M172.596 87.2406L154.276 63.7481C151.094 59.6724 147.472 55.9205 143.36 52.6923C138.998 49.2737 133.555 46.1312 123.85 44.9313C112.974 43.5886 98.4968 49.8831 92.0635 59.501L126.241 108.314L126.541 108.6C131.874 113.39 138.868 116.151 146.192 116.351C154.126 116.418 161.79 113.514 167.463 108.238C167.473 108.229 167.493 108.21 167.533 108.191C169.244 106.524 170.975 104.867 172.686 103.229C177.288 98.7821 176.948 92.6876 172.596 87.2406Z" fill="url(#paint0_linear_10624_125792)"/>
<path d="M142.83 49.0736L140.359 45.8359C140.359 45.8359 136.737 41.2269 132.544 35.8561C131.594 34.6181 130.584 33.3516 129.593 32.0851C127.832 29.8187 126.101 27.6095 124.58 25.6764C124.54 25.6383 124.53 25.6097 124.49 25.5716C118.727 18.2296 110.803 12.6112 101.778 9.74491C101.188 9.55445 100.568 9.38305 99.9574 9.21164C99.5072 9.08785 99.037 8.97356 98.5668 8.86881C98.0765 8.74501 97.6162 8.64979 97.126 8.54504C96.4956 8.41172 95.8653 8.30699 95.235 8.20224C94.9648 8.16415 94.6947 8.11653 94.4046 8.07844C94.0244 8.03083 93.6442 7.97368 93.254 7.94511C92.8938 7.89749 92.5336 7.85943 92.1534 7.82134C91.7732 7.78325 91.383 7.75465 90.9827 7.73561C90.4425 7.68799 89.9022 7.66895 89.3419 7.64991C88.4214 7.61182 87.4709 7.6023 86.5104 7.63087C84.9596 7.66896 83.4088 7.78322 81.878 7.97367C81.5679 8.01177 81.2676 8.04034 80.9575 8.09747C80.5273 8.16413 80.0971 8.2308 79.6569 8.31651C79.6069 8.31651 79.5668 8.33554 79.5168 8.33554C79.1166 8.4022 78.7464 8.46887 78.3662 8.55457C77.8659 8.65932 77.3356 8.77358 76.8353 8.89738C76.6352 8.94499 76.4352 9.00213 76.2451 9.04974C75.5047 9.2402 74.7844 9.44017 74.064 9.66871C65.9197 12.2017 58.7559 16.9726 53.203 23.2005C52.3726 24.0956 51.6022 25.0193 50.8618 25.9811L3.41698 87.5452C0.625521 90.2211 -0.6851 94.1825 0.355443 98.2582C0.915736 100.401 2.2064 102.305 3.84726 103.848C5.42808 105.353 7.03896 106.867 8.6398 108.362C8.67982 108.409 8.72985 108.447 8.76987 108.495C14.5129 113.694 22.2069 116.532 30.131 116.38C37.4448 116.104 44.3984 113.256 49.6811 108.428C49.6811 108.428 49.6812 108.428 49.7012 108.409C54.0935 104.143 83.4789 58.3963 87.8912 54.1492C87.9612 54.0635 88.0312 53.9968 88.1112 53.9111C95.7652 46.3977 105.911 41.5983 116.826 40.2937C131.424 38.7224 136.176 44.7027 142.83 49.0736Z" fill="url(#paint1_linear_10624_125792)"/>
<path d="M266.978 93L240.714 24.4H254.14L281.188 93H266.978ZM212.784 93L239.832 24.4H253.258L226.994 93H212.784ZM225.524 77.908V66.05H268.546V77.908H225.524ZM310.11 94.176C305.014 94.176 300.474 93.098 296.488 90.942C292.503 88.7207 289.4 85.6827 287.178 81.828C284.957 77.908 283.846 73.4653 283.846 68.5C283.846 63.4693 284.957 59.0267 287.178 55.172C289.4 51.3173 292.47 48.312 296.39 46.156C300.31 43.9347 304.818 42.824 309.914 42.824C314.814 42.824 319.29 44.0327 323.34 46.45C327.391 48.8673 330.331 52.3627 332.16 56.936L320.008 61.248C319.094 59.3533 317.656 57.8507 315.696 56.74C313.802 55.564 311.678 54.976 309.326 54.976C306.909 54.976 304.786 55.564 302.956 56.74C301.127 57.8507 299.69 59.4187 298.644 61.444C297.599 63.4693 297.076 65.8213 297.076 68.5C297.076 71.1787 297.599 73.5307 298.644 75.556C299.69 77.516 301.16 79.084 303.054 80.26C304.949 81.436 307.105 82.024 309.522 82.024C311.874 82.024 313.998 81.4033 315.892 80.162C317.852 78.9207 319.29 77.2873 320.204 75.262L332.454 79.574C330.56 84.2127 327.587 87.806 323.536 90.354C319.551 92.902 315.076 94.176 310.11 94.176ZM363.02 94.176C358.055 94.176 353.612 93.098 349.692 90.942C345.838 88.7207 342.8 85.6827 340.578 81.828C338.422 77.9733 337.344 73.5307 337.344 68.5C337.344 63.4693 338.422 59.0267 340.578 55.172C342.734 51.3173 345.74 48.312 349.594 46.156C353.449 43.9347 357.859 42.824 362.824 42.824C367.855 42.824 372.298 43.9347 376.152 46.156C380.007 48.312 383.012 51.3173 385.168 55.172C387.324 59.0267 388.402 63.4693 388.402 68.5C388.402 73.5307 387.324 77.9733 385.168 81.828C383.012 85.6827 380.007 88.7207 376.152 90.942C372.363 93.098 367.986 94.176 363.02 94.176ZM363.02 82.22C365.438 82.22 367.561 81.632 369.39 80.456C371.22 79.28 372.624 77.6793 373.604 75.654C374.65 73.5633 375.172 71.1787 375.172 68.5C375.172 65.8213 374.65 63.4693 373.604 61.444C372.559 59.3533 371.089 57.72 369.194 56.544C367.365 55.368 365.242 54.78 362.824 54.78C360.472 54.78 358.349 55.368 356.454 56.544C354.625 57.72 353.188 59.3533 352.142 61.444C351.097 63.4693 350.574 65.8213 350.574 68.5C350.574 71.1787 351.097 73.5633 352.142 75.654C353.188 77.6793 354.658 79.28 356.552 80.456C358.447 81.632 360.603 82.22 363.02 82.22ZM396.934 93V44H409.086L409.87 53.016V93H396.934ZM429.372 93V67.912L442.308 64.972V93H429.372ZM429.372 67.912C429.372 64.58 428.98 61.9993 428.196 60.17C427.477 58.3407 426.432 57.034 425.06 56.25C423.688 55.4007 422.087 54.976 420.258 54.976C416.926 54.9107 414.345 55.9233 412.516 58.014C410.752 60.1047 409.87 63.208 409.87 67.324H405.558C405.558 62.0973 406.309 57.6873 407.812 54.094C409.38 50.4353 411.536 47.6587 414.28 45.764C417.024 43.804 420.258 42.824 423.982 42.824C429.927 42.824 434.468 44.6533 437.604 48.312C440.805 51.9053 442.373 57.4587 442.308 64.972L429.372 67.912ZM475.663 94.176C470.698 94.176 466.255 93.098 462.335 90.942C458.48 88.7207 455.442 85.6827 453.221 81.828C451.065 77.9733 449.987 73.5307 449.987 68.5C449.987 63.4693 451.065 59.0267 453.221 55.172C455.377 51.3173 458.382 48.312 462.237 46.156C466.092 43.9347 470.502 42.824 475.467 42.824C480.498 42.824 484.94 43.9347 488.795 46.156C492.65 48.312 495.655 51.3173 497.811 55.172C499.967 59.0267 501.045 63.4693 501.045 68.5C501.045 73.5307 499.967 77.9733 497.811 81.828C495.655 85.6827 492.65 88.7207 488.795 90.942C485.006 93.098 480.628 94.176 475.663 94.176ZM475.663 82.22C478.08 82.22 480.204 81.632 482.033 80.456C483.862 79.28 485.267 77.6793 486.247 75.654C487.292 73.5633 487.815 71.1787 487.815 68.5C487.815 65.8213 487.292 63.4693 486.247 61.444C485.202 59.3533 483.732 57.72 481.837 56.544C480.008 55.368 477.884 54.78 475.467 54.78C473.115 54.78 470.992 55.368 469.097 56.544C467.268 57.72 465.83 59.3533 464.785 61.444C463.74 63.4693 463.217 65.8213 463.217 68.5C463.217 71.1787 463.74 73.5633 464.785 75.654C465.83 77.6793 467.3 79.28 469.195 80.456C471.09 81.632 473.246 82.22 475.663 82.22ZM509.576 93V44H521.728L522.512 53.016V93H509.576ZM542.014 93V67.912L554.95 64.972V93H542.014ZM574.55 93V67.912L587.486 64.972V93H574.55ZM542.014 67.912C542.014 64.58 541.622 61.9993 540.838 60.17C540.12 58.3407 539.074 57.034 537.702 56.25C536.33 55.4007 534.73 54.976 532.9 54.976C529.568 54.9107 526.988 55.9233 525.158 58.014C523.394 60.1047 522.512 63.208 522.512 67.324H518.2C518.2 62.0973 518.952 57.6873 520.454 54.094C522.022 50.4353 524.178 47.6587 526.922 45.764C529.666 43.804 532.9 42.824 536.624 42.824C542.57 42.824 547.11 44.6533 550.246 48.312C553.448 51.9053 555.016 57.4587 554.95 64.972L542.014 67.912ZM574.55 67.912C574.55 64.58 574.158 61.9993 573.374 60.17C572.59 58.3407 571.512 57.034 570.14 56.25C568.834 55.4007 567.233 54.976 565.338 54.976C562.006 54.9107 559.426 55.9233 557.596 58.014C555.832 60.1047 554.95 63.208 554.95 67.324H550.638C550.638 62.0973 551.39 57.6873 552.892 54.094C554.46 50.4353 556.616 47.6587 559.36 45.764C562.17 43.804 565.436 42.824 569.16 42.824C575.106 42.824 579.646 44.6533 582.782 48.312C585.918 51.9053 587.486 57.4587 587.486 64.972L574.55 67.912ZM606.275 113.776C604.511 113.776 602.551 113.417 600.395 112.698C598.304 112.045 596.442 111.261 594.809 110.346L599.611 99.86C600.721 100.448 601.734 100.905 602.649 101.232C603.629 101.624 604.478 101.82 605.197 101.82C606.569 101.82 607.777 101.428 608.823 100.644C609.868 99.9253 610.717 98.8473 611.371 97.41L617.153 83.788L632.735 44H646.945L624.699 97.214C623.327 100.481 621.889 103.355 620.387 105.838C618.884 108.386 617.022 110.346 614.801 111.718C612.645 113.09 609.803 113.776 606.275 113.776ZM613.723 93L591.281 44H605.491L621.857 83.788L626.071 93H613.723Z" fill="#1C2B4B"/>
<defs>
<linearGradient id="paint0_linear_10624_125792" x1="92.0635" y1="80.5519" x2="176" y2="80.5519" gradientUnits="userSpaceOnUse">
<stop stop-color="#FD746C"/>
<stop offset="1" stop-color="#FFCC68"/>
</linearGradient>
<linearGradient id="paint1_linear_10624_125792" x1="0" y1="62" x2="142.83" y2="62" gradientUnits="userSpaceOnUse">
<stop stop-color="#FD746C"/>
<stop offset="1" stop-color="#FFCC68"/>
</linearGradient>
</defs>
</svg>
