<svg width="40" height="40" viewBox="0 0 40 40" fill="none" xmlns="http://www.w3.org/2000/svg">
<path d="M17.9528 12.0496L13.5647 4.73643C13.3843 4.43558 13.129 4.1866 12.8238 4.01373C12.5185 3.84087 12.1737 3.75 11.8229 3.75H4.76748C3.94546 3.75 3.46431 4.67485 3.93531 5.34834L10.9983 15.4386C12.8849 13.6758 15.2843 12.466 17.9528 12.0496ZM35.2324 3.75H28.177C27.4635 3.75 26.8021 4.12451 26.4352 4.73643L22.0471 12.0496C24.7156 12.466 27.115 13.6758 29.0016 15.4379L36.0646 5.34834C36.5356 4.67485 36.0544 3.75 35.2324 3.75ZM20 13.9062C13.83 13.9062 8.82808 18.9082 8.82808 25.0781C8.82808 31.248 13.83 36.25 20 36.25C26.1699 36.25 31.1718 31.248 31.1718 25.0781C31.1718 18.9082 26.1699 13.9062 20 13.9062ZM25.8728 23.8886L23.4651 26.2347L24.0345 29.5494C24.1361 30.1436 23.5102 30.5974 22.9776 30.3168L20 28.7521L17.0229 30.3168C16.4897 30.5993 15.8645 30.1429 15.966 29.5494L16.5354 26.2347L14.1277 23.8886C13.6948 23.4671 13.9341 22.7314 14.5308 22.6451L17.8589 22.1601L19.3461 19.1437C19.4801 18.872 19.7391 18.7381 19.9987 18.7381C20.2596 18.7381 20.5205 18.8739 20.6544 19.1437L22.1416 22.1601L25.4697 22.6451C26.0664 22.7314 26.3057 23.4671 25.8728 23.8886Z" fill="#FFA715"/>
</svg>
