<svg width="40" height="40" viewBox="0 0 40 40" fill="none" xmlns="http://www.w3.org/2000/svg">
<path fill-rule="evenodd" clip-rule="evenodd" d="M5 17.3623C5 12.034 5 9.36732 5.63 8.47065C6.25833 7.57565 8.76333 6.71732 13.775 5.00065L14.73 4.67565C17.3417 3.78065 18.6483 3.33398 20 3.33398C21.3533 3.33398 22.6583 3.78065 25.27 4.67565L26.225 5.00232C31.2367 6.71732 33.7417 7.57565 34.37 8.47065C35 9.36732 35 12.0323 35 17.3623V19.9856C35 29.384 27.935 33.9423 23.5017 35.879L23.4959 35.8815C22.2981 36.4048 21.6973 36.6673 20 36.6673C18.3027 36.6673 17.7008 36.4043 16.5006 35.88L16.4983 35.879C12.065 33.944 5 29.3823 5 19.9856V17.3623ZM17.8895 14.3274L18.1062 13.9357L18.1077 13.9331C18.9517 12.4198 19.3732 11.6641 20.0045 11.6641C20.6358 11.6641 21.0574 12.4198 21.9014 13.9331L21.9028 13.9357L22.1212 14.3291L22.1212 14.3291C22.3612 14.7591 22.4812 14.9741 22.6678 15.1157C22.8545 15.2574 23.0878 15.3107 23.5545 15.4157L23.9778 15.5124C25.6178 15.8824 26.4378 16.0691 26.6328 16.6957C26.8274 17.3226 26.2704 17.9744 25.1588 19.2752L25.1512 19.2841L24.8612 19.6224C24.5445 19.9924 24.3862 20.1791 24.3145 20.4091C24.2428 20.6391 24.2662 20.8874 24.3145 21.3824L24.3578 21.8341C24.5278 23.5774 24.6112 24.4507 24.1012 24.8374C23.5912 25.2257 22.8212 24.8724 21.2878 24.1641L20.8895 23.9807C20.4545 23.7807 20.2362 23.6807 20.0045 23.6807C19.7756 23.6807 19.5597 23.78 19.1349 23.9753L19.1195 23.9824L18.7212 24.1657L18.7056 24.1729C17.181 24.8731 16.4161 25.2244 15.9078 24.8374C15.3978 24.4491 15.4812 23.5774 15.6512 21.8324L15.6945 21.3824C15.7428 20.8874 15.7662 20.6391 15.6945 20.4091C15.6232 20.1804 15.4663 19.9962 15.1532 19.6287L15.1478 19.6224L14.8578 19.2841C13.7395 17.9774 13.1812 17.3241 13.3762 16.6957C13.5712 16.0691 14.3912 15.8824 16.0312 15.5124L16.4545 15.4157C16.9212 15.3107 17.1545 15.2574 17.3412 15.1157C17.5272 14.9745 17.647 14.7605 17.887 14.3318L17.8895 14.3274Z" fill="#00ABBE"/>
</svg>
