<svg width="40" height="40" viewBox="0 0 40 40" fill="none" xmlns="http://www.w3.org/2000/svg">
<mask id="mask0_884_4674" style="mask-type:luminance" maskUnits="userSpaceOnUse" x="1" y="1" width="38" height="38">
<path d="M19.9997 36.6673C22.1888 36.6701 24.3569 36.2403 26.3793 35.4026C28.4018 34.5648 30.2388 33.3356 31.7847 31.7856C33.3346 30.2397 34.5638 28.4028 35.4016 26.3803C36.2393 24.3579 36.6692 22.1898 36.6663 20.0007C36.6691 17.8115 36.2393 15.6435 35.4015 13.621C34.5638 11.5986 33.3346 9.76158 31.7847 8.21566C30.2388 6.66568 28.4018 5.4365 26.3793 4.59873C24.3569 3.76097 22.1888 3.33116 19.9997 3.334C17.8106 3.33121 15.6425 3.76104 13.62 4.5988C11.5976 5.43656 9.7606 6.66572 8.21468 8.21566C6.66475 9.76158 5.43558 11.5986 4.59782 13.621C3.76006 15.6435 3.33023 17.8115 3.33302 20.0007C3.33019 22.1898 3.76 24.3579 4.59776 26.3803C5.43552 28.4028 6.66471 30.2397 8.21468 31.7856C9.7606 33.3356 11.5976 34.5647 13.62 35.4025C15.6425 36.2403 17.8106 36.6701 19.9997 36.6673Z" fill="white" stroke="white" stroke-width="3" stroke-linejoin="round"/>
<path d="M13.3369 20L18.3369 25L28.3369 15" stroke="black" stroke-width="3" stroke-linecap="round" stroke-linejoin="round"/>
</mask>
<g mask="url(#mask0_884_4674)">
<path d="M-0.00683594 0.00195312H39.9931V40.0019H-0.00683594V0.00195312Z" fill="#748094"/>
</g>
</svg>
