<svg width="148" height="39" viewBox="0 0 148 39" fill="none" xmlns="http://www.w3.org/2000/svg">
<path fill-rule="evenodd" clip-rule="evenodd" d="M0.564453 22.7343C0.564453 23.4791 0.564453 23.8543 0.754851 23.9691C0.945249 24.0839 1.18551 23.8571 1.66151 23.3951L18.1808 7.52485C19.5181 6.23967 20.1868 5.59847 20.9642 5.59847C21.1671 5.59847 21.3626 5.64233 21.5645 5.72993V22.0615C21.4046 22.0204 21.2371 21.9985 21.0645 21.9985C20.8918 21.9985 20.7243 22.0204 20.5645 22.0615V15.9985H12.5645V22.9985H19.332C19.1618 23.2927 19.0645 23.6342 19.0645 23.9985H12.5645V30.9985H20.5645V25.9355C20.7243 25.9767 20.8918 25.9985 21.0645 25.9985C21.2371 25.9985 21.4046 25.9767 21.5645 25.9355V30.9985H28.5645V23.9985H23.0645C23.0645 23.6337 22.9668 23.2917 22.7961 22.9972H37.5645V20.7988L40.267 23.3951C40.743 23.8543 40.9832 24.0839 41.1736 23.9691C41.364 23.8543 41.364 23.4791 41.364 22.7343V21.5891V21.589C41.364 20.2451 41.364 19.5731 41.1328 18.9907C40.9039 18.4083 40.4732 17.9939 39.6142 17.1707L34.5113 12.2675C34.5443 12.1362 34.562 11.9967 34.562 11.852V3.45209C34.562 2.6789 34.0546 2.05211 33.4287 2.05211H31.1621C30.5361 2.05211 30.0287 2.6789 30.0287 3.45209V7.96028L23.7477 1.92491C22.4103 0.639727 21.7417 -0.00146484 20.9642 -0.00146484C20.1897 -0.00146484 19.5231 0.637727 18.1957 1.91058L18.1808 1.92491L2.3143 17.1707C1.45524 17.9939 1.02458 18.4083 0.795651 18.9907C0.564453 19.5731 0.564453 20.2451 0.564453 21.5891V22.7343ZM36.0748 19.3676L24.7645 8.50169V19.3676H36.0748ZM21.5645 31.9985H28.5645V38.9985H21.5645V31.9985ZM29.5645 23.9985V30.9985H37.5645V23.9985H29.5645ZM37.5645 31.9985V36.9985C37.5645 38.1031 36.669 38.9985 35.5645 38.9985H29.5645V31.9985H37.5645ZM11.5645 24.9985L4.56445 25.0018V37.0018C4.56445 38.1064 5.45988 39.0018 6.56445 39.0018H20.5645V32.0018L11.5645 31.9985V28.1096V24.9985ZM26.0645 18.4985V10.9985L33.5645 18.4985H26.0645ZM11.5645 15.9985V22.9985H4.56445L11.5645 15.9985ZM20.5645 14.9985V6.99854L12.5645 14.9985H20.5645Z" fill="white"/>
<circle cx="21.0645" cy="23.9985" r="2" fill="white" stroke="white"/>
<path d="M60.0563 9.78V30.5H55.5203V9.78H60.0563ZM63.9203 23.612H58.9363V19.58H62.9123C64.0136 19.58 64.8349 19.3467 65.3763 18.88C65.9176 18.3947 66.1883 17.6667 66.1883 16.696C66.1883 15.7253 65.9176 15.0067 65.3763 14.54C64.8349 14.0547 64.0136 13.812 62.9123 13.812H58.9363V9.78H63.9203C65.3389 9.78 66.5709 10.0693 67.6163 10.648C68.6803 11.2267 69.5016 12.0387 70.0803 13.084C70.6776 14.1107 70.9763 15.3147 70.9763 16.696C70.9763 18.0773 70.6776 19.2907 70.0803 20.336C69.5016 21.3627 68.6803 22.1653 67.6163 22.744C66.5709 23.3227 65.3389 23.612 63.9203 23.612ZM82.9406 16.5V20.56H81.5686C80.3366 20.56 79.3659 20.8587 78.6566 21.456C77.9659 22.0533 77.6206 23.0427 77.6206 24.424V30.5H73.3086V16.528H77.3686L77.7046 19.524H77.3126C77.4992 18.5907 77.9192 17.8253 78.5726 17.228C79.2446 16.612 80.1499 16.304 81.2886 16.304C81.5499 16.304 81.8112 16.3227 82.0726 16.36C82.3526 16.3787 82.6419 16.4253 82.9406 16.5ZM83.9549 23.472C83.9549 21.9973 84.2816 20.7093 84.9349 19.608C85.6069 18.488 86.5216 17.62 87.6789 17.004C88.8549 16.388 90.1896 16.08 91.6829 16.08C93.1762 16.08 94.5016 16.388 95.6589 17.004C96.8162 17.62 97.7216 18.488 98.3749 19.608C99.0469 20.7093 99.3829 21.9973 99.3829 23.472C99.3829 24.9467 99.0469 26.2347 98.3749 27.336C97.7216 28.4373 96.8162 29.296 95.6589 29.912C94.5016 30.528 93.1762 30.836 91.6829 30.836C90.1896 30.836 88.8549 30.528 87.6789 29.912C86.5216 29.296 85.6069 28.4373 84.9349 27.336C84.2816 26.2347 83.9549 24.9467 83.9549 23.472ZM88.2949 23.444C88.2949 24.1533 88.4349 24.7787 88.7149 25.32C89.0136 25.8427 89.4149 26.2533 89.9189 26.552C90.4229 26.832 91.0109 26.972 91.6829 26.972C92.3549 26.972 92.9429 26.832 93.4469 26.552C93.9509 26.2533 94.3429 25.8427 94.6229 25.32C94.9029 24.7787 95.0429 24.1533 95.0429 23.444C95.0429 22.7347 94.9029 22.1187 94.6229 21.596C94.3429 21.0733 93.9509 20.672 93.4469 20.392C92.9429 20.0933 92.3549 19.944 91.6829 19.944C91.0109 19.944 90.4229 20.0933 89.9189 20.392C89.4149 20.672 89.0136 21.0733 88.7149 21.596C88.4349 22.1187 88.2949 22.7347 88.2949 23.444ZM101.883 37.22V16.5H105.943L106.167 18.208C106.559 17.5547 107.165 17.032 107.987 16.64C108.808 16.248 109.713 16.052 110.703 16.052C112.009 16.052 113.157 16.3413 114.147 16.92C115.136 17.4987 115.911 18.3293 116.471 19.412C117.031 20.476 117.311 21.764 117.311 23.276C117.311 24.7507 117.049 26.0667 116.527 27.224C116.023 28.3627 115.276 29.2587 114.287 29.912C113.316 30.5653 112.131 30.892 110.731 30.892C109.76 30.892 108.864 30.724 108.043 30.388C107.221 30.052 106.605 29.6227 106.195 29.1V37.22H101.883ZM106.223 23.5C106.223 24.1907 106.363 24.8067 106.643 25.348C106.941 25.8707 107.343 26.2813 107.847 26.58C108.369 26.86 108.967 27 109.639 27C110.329 27 110.917 26.8507 111.403 26.552C111.907 26.2533 112.289 25.8427 112.551 25.32C112.831 24.7973 112.971 24.1907 112.971 23.5C112.971 22.8093 112.831 22.2027 112.551 21.68C112.289 21.1573 111.907 20.7467 111.403 20.448C110.917 20.1493 110.329 20 109.639 20C108.967 20 108.369 20.1493 107.847 20.448C107.343 20.728 106.941 21.1293 106.643 21.652C106.363 22.1747 106.223 22.7907 106.223 23.5ZM126.629 11.964V30.5H122.093V11.964H126.629ZM116.213 13.98V9.78H132.509V13.98H116.213ZM136.437 16.5L140.553 28.596L138.453 33.58L131.817 16.5H136.437ZM132.181 37.22V33.608H134.561C135.046 33.608 135.447 33.5427 135.765 33.412C136.082 33.3 136.353 33.104 136.577 32.824C136.801 32.544 137.006 32.152 137.193 31.648L142.877 16.5H147.357L140.245 33.552C139.666 34.9707 138.957 35.9973 138.117 36.632C137.295 37.2853 136.269 37.612 135.037 37.612C134.514 37.612 134.01 37.5747 133.525 37.5C133.058 37.444 132.61 37.3507 132.181 37.22Z" fill="white"/>
</svg>