<svg width="213" height="44" viewBox="0 0 213 44" fill="none" xmlns="http://www.w3.org/2000/svg">
<g clip-path="url(#clip0_270_15497)">
<mask id="mask0_270_15497" style="mask-type:luminance" maskUnits="userSpaceOnUse" x="1" y="0" width="46" height="44">
<path d="M1.63672 0.817383H46.7397V43.9996H1.63672V0.817383Z" fill="white"/>
</mask>
<g mask="url(#mask0_270_15497)">
<path d="M31.8021 1.14148C30.9914 1.14148 30.1807 1.29782 29.4079 1.61272L5.97092 11.1403C2.72137 12.4602 1.15354 16.1765 2.4757 19.4261L10.7325 39.7386C11.3735 41.3131 12.5862 42.5437 14.1518 43.2026C15.7174 43.8637 17.446 43.8748 19.0183 43.2338L42.4553 33.7063C44.0276 33.0675 45.2582 31.8526 45.9193 30.2892C46.5803 28.7236 46.5915 26.995 45.9505 25.4205L37.6937 5.10795C37.0528 3.53566 35.8378 2.30507 34.2745 1.64399C33.4794 1.30899 32.6396 1.14148 31.8021 1.14148ZM16.6219 43.9999C15.7464 43.9999 14.8709 43.8235 14.0379 43.4728C12.4008 42.7827 11.13 41.4963 10.4622 39.8503L2.20322 19.5355C0.820767 16.1386 2.4623 12.2503 5.86149 10.8678L29.2963 1.34025C30.9423 0.672474 32.7513 0.683641 34.3884 1.37375C36.0254 2.0661 37.2962 3.35252 37.964 4.99852L46.223 25.311C46.8908 26.957 46.8796 28.7661 46.1895 30.4031C45.4971 32.0402 44.2107 33.3087 42.5647 33.9788L19.13 43.5063C18.3192 43.8346 17.4706 43.9999 16.6219 43.9999Z" fill="white"/>
</g>
<path d="M10.7685 3.67222C10.6925 3.67222 10.63 3.61639 10.6211 3.54045C10.6144 3.46005 10.6724 3.38858 10.7529 3.37965L10.8333 3.37295C10.9137 3.36402 10.9829 3.42432 10.9918 3.50472C10.9985 3.58512 10.9382 3.65659 10.8578 3.66329L10.7819 3.67222C10.7774 3.67222 10.773 3.67222 10.7685 3.67222ZM9.5379 3.89332C9.47313 3.89332 9.41506 3.85089 9.39719 3.78389C9.37709 3.70572 9.42399 3.62532 9.50216 3.60522L9.5781 3.58512C9.65626 3.56725 9.73667 3.61192 9.75677 3.69232C9.77687 3.77049 9.72773 3.84866 9.64956 3.86876L9.57586 3.88886C9.5647 3.89109 9.5513 3.89332 9.5379 3.89332ZM8.36091 4.30426C8.30507 4.30426 8.25147 4.273 8.22691 4.21716C8.19341 4.14346 8.22691 4.05636 8.30284 4.02509L8.37431 3.99383C8.45024 3.96033 8.53511 3.99606 8.56638 4.06976C8.59988 4.14346 8.56415 4.23056 8.49044 4.26183L8.41898 4.2931C8.40111 4.30203 8.38101 4.30426 8.36091 4.30426ZM7.26209 4.89611C7.21296 4.89611 7.16606 4.87377 7.13925 4.82911C7.09459 4.76211 7.11469 4.67054 7.18169 4.62587L7.24869 4.58344C7.31792 4.541 7.40726 4.5611 7.45193 4.63034C7.49436 4.69734 7.47426 4.78891 7.40503 4.83134L7.34026 4.87377C7.31569 4.88941 7.28889 4.89611 7.26209 4.89611ZM6.26824 5.65099C6.22804 5.65099 6.18784 5.63535 6.1588 5.60185C6.1052 5.54155 6.10967 5.44998 6.16997 5.39638L6.23027 5.34278C6.29057 5.28918 6.38438 5.29588 6.43574 5.35842C6.48934 5.41872 6.48264 5.51029 6.42234 5.56389L6.36427 5.61525C6.33747 5.63982 6.30174 5.65099 6.26824 5.65099ZM5.40169 6.55104C5.37042 6.55104 5.33692 6.5421 5.31012 6.51977C5.24759 6.4684 5.23866 6.3746 5.29002 6.31207L5.34139 6.25177C5.39276 6.18923 5.48433 6.1803 5.54686 6.2339C5.6094 6.28527 5.61609 6.37683 5.56473 6.43937L5.51559 6.49967C5.48656 6.53317 5.44413 6.55104 5.40169 6.55104ZM4.68701 7.57615C4.66245 7.57615 4.63565 7.56945 4.61331 7.55605C4.54408 7.51362 4.51951 7.42429 4.56194 7.35505L4.60214 7.28582C4.64235 7.21658 4.73391 7.19425 4.80315 7.23668C4.87238 7.27912 4.89472 7.36845 4.85228 7.43769L4.81431 7.50469C4.78528 7.54935 4.73615 7.57615 4.68701 7.57615Z" fill="white"/>
<path d="M42.9054 38.7323C42.8719 38.7323 42.8384 38.7211 42.8116 38.6965C42.749 38.6452 42.7423 38.5514 42.7959 38.4911L42.8451 38.433C42.8964 38.3705 42.9902 38.3638 43.0505 38.4151C43.1131 38.4687 43.122 38.5603 43.0684 38.6228L43.017 38.6831C42.988 38.7166 42.9478 38.7323 42.9054 38.7323ZM42.021 39.6122C41.9785 39.6122 41.9383 39.5966 41.9093 39.5609C41.8557 39.5006 41.8646 39.4068 41.9249 39.3554L41.983 39.304C42.0455 39.2527 42.1371 39.2594 42.1907 39.3197C42.2443 39.38 42.2354 39.4738 42.1751 39.5274L42.1148 39.5787C42.088 39.6011 42.0545 39.6122 42.021 39.6122ZM41.0092 40.3448C40.9601 40.3448 40.911 40.3202 40.8842 40.2755C40.8417 40.2063 40.8641 40.1147 40.9333 40.0723L40.9981 40.0343C41.0651 39.9897 41.1566 40.012 41.1991 40.079C41.2415 40.1482 41.2214 40.2398 41.1522 40.2822L41.0852 40.3247C41.0606 40.3381 41.0338 40.3448 41.0092 40.3448ZM39.8948 40.9098C39.8367 40.9098 39.7831 40.8763 39.7608 40.8182C39.7295 40.7445 39.7653 40.6597 39.839 40.6284L39.9104 40.5994C39.9841 40.5681 40.0712 40.6016 40.1025 40.6753C40.1338 40.7512 40.1003 40.8361 40.0243 40.8674L39.9506 40.8986C39.9328 40.9076 39.9149 40.9098 39.8948 40.9098ZM38.7089 41.294C38.6419 41.294 38.5816 41.2493 38.5659 41.1823C38.5458 41.1019 38.595 41.0237 38.6731 41.0058L38.7491 40.9857C38.8272 40.9679 38.9054 41.0148 38.9255 41.0929C38.9456 41.1734 38.8965 41.2515 38.8183 41.2716L38.7424 41.2895C38.7312 41.2917 38.72 41.294 38.7089 41.294ZM37.4738 41.486C37.3979 41.486 37.3331 41.428 37.3286 41.352C37.3219 41.2694 37.3822 41.2002 37.4626 41.1935L37.5408 41.1868C37.6212 41.1801 37.6905 41.2404 37.6972 41.3208C37.7039 41.4012 37.6458 41.4726 37.5654 41.4793L37.485 41.486C37.4805 41.486 37.4783 41.486 37.4738 41.486ZM32.5537 41.5084H32.4755C32.3951 41.5084 32.3281 41.4436 32.3281 41.3632C32.3281 41.2828 32.3951 41.2158 32.4755 41.2158H32.5537C32.6341 41.2158 32.6989 41.2828 32.6989 41.3632C32.6989 41.4436 32.6341 41.5084 32.5537 41.5084ZM33.8022 41.5084H33.724C33.6436 41.5084 33.5788 41.4436 33.5788 41.3632C33.5788 41.2828 33.6436 41.2158 33.724 41.2158H33.8022C33.8848 41.2158 33.9496 41.2828 33.9496 41.3632C33.9496 41.4436 33.8848 41.5084 33.8022 41.5084ZM35.0528 41.5084H34.9747C34.8943 41.5084 34.8273 41.4436 34.8273 41.3632C34.8273 41.2828 34.8943 41.2158 34.9747 41.2158H35.0528C35.1332 41.2158 35.2002 41.2828 35.2002 41.3632C35.2002 41.4436 35.1332 41.5084 35.0528 41.5084ZM36.3035 41.5084H36.2254C36.145 41.5084 36.078 41.4436 36.078 41.3632C36.078 41.2828 36.145 41.2158 36.2254 41.2158H36.3035C36.3839 41.2158 36.4487 41.2828 36.4487 41.3632C36.4487 41.4436 36.3839 41.5084 36.3035 41.5084Z" fill="white"/>
<path d="M36.864 39.892H11.5644C7.97091 39.892 5.05859 36.9797 5.05859 33.3862V11.4589C5.05859 7.86544 7.97091 4.95312 11.5644 4.95312H36.864C40.4553 4.95312 43.3699 7.86544 43.3699 11.4589V33.3862C43.3699 36.9797 40.4553 39.892 36.864 39.892Z" fill="white"/>
<path d="M23.2563 32.1619H15.8691V11.5791H23.3166C25.4109 11.5791 27.2168 11.9916 28.7321 12.8124C30.2474 13.6353 31.4119 14.8154 32.2277 16.3506C33.0413 17.8815 33.4502 19.7165 33.4502 21.8535C33.4502 23.9968 33.0391 25.8403 32.2191 27.3819C31.4033 28.9192 30.2345 30.1015 28.7149 30.9286C27.1931 31.7515 25.3743 32.1619 23.2563 32.1619ZM20.2773 28.4365H23.0755C25.0321 28.4365 26.5151 27.9156 27.5267 26.8716C28.5427 25.8233 29.0507 24.1499 29.0507 21.8535C29.0507 19.5698 28.5427 17.907 27.5267 16.8694C26.5151 15.8317 25.0342 15.3129 23.0841 15.3129H20.2773V28.4365Z" fill="#6941C6"/>
<path d="M23.7407 26.1582H21.8711L24.5511 21.8701L21.8711 17.582H23.7407C24.0184 17.582 24.2788 17.7165 24.4397 17.9428L27.0546 21.6217C27.1603 21.7704 27.1603 21.9698 27.0546 22.1185L24.4397 25.7974C24.2788 26.0237 24.0184 26.1582 23.7407 26.1582Z" fill="#6941C6"/>
<path d="M18.6036 1.22864C18.5656 1.22864 18.5277 1.21301 18.4986 1.18621C18.4428 1.12814 18.4428 1.03434 18.5009 0.978504L18.6907 0.788668C18.7465 0.7306 18.8403 0.7306 18.8962 0.788668C18.9542 0.844502 18.9542 0.938304 18.8962 0.994138L18.7063 1.18621C18.6773 1.21301 18.6416 1.22864 18.6036 1.22864Z" fill="white"/>
<path d="M17.2718 2.56067C17.2339 2.56067 17.1959 2.54727 17.1669 2.51824C17.111 2.46017 17.111 2.3686 17.1669 2.31054L17.3567 2.1207C17.4148 2.06263 17.5086 2.06263 17.5644 2.1207C17.6225 2.17653 17.6225 2.27033 17.5644 2.3284L17.3746 2.51824C17.3455 2.54727 17.3076 2.56067 17.2718 2.56067Z" fill="white"/>
<path d="M17.4617 1.22864C17.4237 1.22864 17.3857 1.21301 17.3567 1.18621L17.1669 0.994138C17.111 0.938304 17.111 0.844502 17.1669 0.788668C17.2249 0.7306 17.3165 0.7306 17.3746 0.788668L17.5644 0.978504C17.6225 1.03434 17.6225 1.12814 17.5644 1.18621C17.5354 1.21301 17.4996 1.22864 17.4617 1.22864Z" fill="white"/>
<path d="M18.7951 2.56067C18.7571 2.56067 18.7214 2.54727 18.6924 2.51824L18.5025 2.3284C18.4445 2.27033 18.4445 2.17877 18.5025 2.1207C18.5584 2.06263 18.6522 2.06263 18.708 2.1207L18.8978 2.31054C18.9559 2.3686 18.9559 2.46017 18.8978 2.51824C18.871 2.54727 18.8331 2.56067 18.7951 2.56067Z" fill="white"/>
<path d="M7.58825 42.1085C7.55028 42.1085 7.51232 42.0951 7.48328 42.0661C7.42745 42.008 7.42745 41.9165 7.48328 41.8584L7.67312 41.6686C7.73119 41.6105 7.82275 41.6105 7.88082 41.6686C7.93889 41.7266 7.93889 41.8182 7.88082 41.8763L7.69099 42.0661C7.66195 42.0951 7.62398 42.1085 7.58825 42.1085Z" fill="white"/>
<path d="M6.25566 43.4399C6.21769 43.4399 6.18196 43.4265 6.15293 43.3974C6.09486 43.3416 6.09486 43.2478 6.15293 43.1897L6.34276 42.9999C6.40083 42.944 6.4924 42.944 6.55047 42.9999C6.60853 43.058 6.60853 43.1495 6.55047 43.2076L6.36063 43.3974C6.3316 43.4265 6.29363 43.4399 6.25566 43.4399Z" fill="white"/>
<path d="M6.4455 42.1085C6.40976 42.1085 6.3718 42.0951 6.34276 42.0661L6.15293 41.8763C6.09486 41.8182 6.09486 41.7266 6.15293 41.6686C6.21099 41.6105 6.30256 41.6105 6.36063 41.6686L6.55047 41.8584C6.60853 41.9165 6.60853 42.008 6.55047 42.0661C6.52143 42.0951 6.48346 42.1085 6.4455 42.1085Z" fill="white"/>
<path d="M7.77809 43.4399C7.74012 43.4399 7.70215 43.4265 7.67312 43.3974L7.48328 43.2076C7.42745 43.1495 7.42745 43.058 7.48328 42.9999C7.54135 42.944 7.63292 42.944 7.69099 42.9999L7.88082 43.1897C7.93889 43.2478 7.93889 43.3416 7.88082 43.3974C7.85179 43.4265 7.81382 43.4399 7.77809 43.4399Z" fill="white"/>
<path d="M46.1823 15.3814C45.7222 15.3814 45.3492 15.7566 45.3492 16.2145C45.3492 16.6746 45.7222 17.0475 46.1823 17.0475C46.6423 17.0475 47.0153 16.6746 47.0153 16.2145C47.0153 15.7566 46.6423 15.3814 46.1823 15.3814ZM46.1823 17.3401C45.5614 17.3401 45.0566 16.8354 45.0566 16.2145C45.0566 15.5936 45.5614 15.0889 46.1823 15.0889C46.8031 15.0889 47.3079 15.5936 47.3079 16.2145C47.3079 16.8354 46.8031 17.3401 46.1823 17.3401Z" fill="white"/>
<path d="M34.6549 2.72484C34.2462 2.72484 33.833 2.76504 33.4243 2.84321L8.37037 7.68962C4.89747 8.36187 2.61943 11.7343 3.28944 15.2094L7.49042 36.9222C8.08449 39.9864 10.7779 42.1193 13.7885 42.1215C14.1905 42.1215 14.597 42.0836 15.0079 42.0032L40.0619 37.1567C41.7436 36.8307 43.1998 35.8703 44.1579 34.4499C45.1183 33.0295 45.4667 31.3209 45.1428 29.6392L40.9419 7.92413C40.6158 6.2424 39.6532 4.78624 38.235 3.82812C37.1608 3.10228 35.9235 2.72484 34.6549 2.72484ZM13.7863 42.4141C10.6395 42.4141 7.82319 40.1807 7.20231 36.9781L3.00134 15.263C2.30006 11.6315 4.68307 8.10503 8.31453 7.40375L33.3685 2.55733C35.1284 2.21563 36.9151 2.5819 38.3981 3.58468C39.8832 4.58747 40.8883 6.1084 41.2277 7.86829L45.4287 29.5834C45.7704 31.3433 45.4041 33.13 44.4014 34.6129C43.3986 36.0981 41.8754 37.1031 40.1178 37.4448L15.0638 42.2913C14.635 42.3739 14.2084 42.4141 13.7863 42.4141Z" fill="white"/>
<mask id="mask1_270_15497" style="mask-type:luminance" maskUnits="userSpaceOnUse" x="46" y="3" width="4" height="4">
<path d="M46.7422 3.88574H49.152V6.03425H46.7422V3.88574Z" fill="white"/>
</mask>
<g mask="url(#mask1_270_15497)">
<path d="M46.8359 6.01218L49.2189 5.0965L48.5735 3.89941L46.8359 6.01218Z" fill="white"/>
</g>
<mask id="mask2_270_15497" style="mask-type:luminance" maskUnits="userSpaceOnUse" x="42" y="0" width="4" height="5">
<path d="M42.0234 0H45.4539V4.56501H42.0234V0Z" fill="white"/>
</mask>
<g mask="url(#mask2_270_15497)">
<path d="M44.0168 0L42.3887 4.11164L45.2831 0.868782L44.0168 0Z" fill="white"/>
</g>
<mask id="mask3_270_15497" style="mask-type:luminance" maskUnits="userSpaceOnUse" x="45" y="36" width="5" height="4">
<path d="M45.8223 36.7168H49.1522V39.1713H45.8223V36.7168Z" fill="white"/>
</mask>
<g mask="url(#mask3_270_15497)">
<path d="M45.9062 36.7344L48.8543 39.1241L49.1982 37.7439L45.9062 36.7344Z" fill="white"/>
</g>
<path d="M3.16599 35.181L0.675781 35.1162L0.809784 36.4384L3.16599 35.181Z" fill="white"/>
<path d="M1.36429 41.5902L4.37041 38.4902L0.546875 40.3328L1.36429 41.5902Z" fill="white"/>
<mask id="mask4_270_15497" style="mask-type:luminance" maskUnits="userSpaceOnUse" x="0" y="7" width="3" height="3">
<path d="M0 7.42383H2.57284V9.7108H0V7.42383Z" fill="white"/>
</mask>
<g mask="url(#mask4_270_15497)">
<path d="M2.21522 9.37005L0.254324 7.71289L0.00195312 8.64197L2.21522 9.37005Z" fill="white"/>
</g>
<path d="M53.4395 17.2889V15.9971H62.4449V17.2889H58.6705V28.0031H57.2139V17.2889H53.4395Z" fill="#172b4d"/>
<path d="M65.3613 28.0031V15.9971H66.8179V21.3415H73.2142V15.9971H74.6707V28.0031H73.2142V22.6333H66.8179V28.0031H65.3613Z" fill="#172b4d"/>
<path d="M78.2422 28.0031V15.9971H85.4871V17.2889H79.6988V21.3415H85.1197V22.6333H79.6988V26.7113H85.5884V28.0031H78.2422Z" fill="#172b4d"/>
<path d="M94.1451 28.0027H89.877V15.9961H94.1705C95.3768 15.9961 96.4154 16.2367 97.2861 16.718C98.1632 17.193 98.8376 17.8769 99.3125 18.7698C99.7843 19.6658 100.022 20.7392 100.022 21.9867C100.022 23.2374 99.7843 24.3139 99.3125 25.2163C98.8376 26.1124 98.1632 26.7995 97.2861 27.2808C96.4059 27.762 95.361 28.0027 94.1451 28.0027ZM92.4227 25.8243H94.0311C95.1615 25.8243 96.0196 25.5203 96.6022 24.9124C97.1911 24.3044 97.4888 23.3292 97.4888 21.9867C97.4888 20.6537 97.1911 19.6817 96.6022 19.0737C96.0196 18.4658 95.1647 18.1618 94.0438 18.1618H92.4227V25.8243Z" fill="#172b4d"/>
<path d="M102.545 28.0027V15.9961H107.294C108.197 15.9961 108.969 16.1702 109.612 16.5154C110.252 16.8637 110.742 17.3449 111.081 17.9592C111.417 18.5671 111.588 19.27 111.588 20.0616C111.588 20.8564 111.414 21.5561 111.069 22.164C110.73 22.772 110.236 23.2501 109.587 23.5952C108.935 23.9435 108.146 24.1145 107.218 24.1145H105.091V28.0027H102.545ZM105.091 22.0754H106.813C107.538 22.0754 108.08 21.8917 108.434 21.5181C108.795 21.1382 108.979 20.6537 108.979 20.0616C108.979 19.4632 108.795 18.9819 108.434 18.6178C108.08 18.2568 107.535 18.0732 106.8 18.0732H105.091V22.0754Z" fill="#172b4d"/>
<path d="M113.904 28.0027V15.9961H118.654C119.556 15.9961 120.329 16.1702 120.971 16.5154C121.611 16.8637 122.102 17.3449 122.441 17.9592C122.776 18.5671 122.947 19.27 122.947 20.0616C122.947 20.8564 122.773 21.5561 122.428 22.164C122.089 22.772 121.595 23.2501 120.946 23.5952C120.294 23.9435 119.505 24.1145 118.578 24.1145H116.45V28.0027H113.904ZM116.45 22.0754H118.172C118.898 22.0754 119.439 21.8917 119.794 21.5181C120.155 21.1382 120.338 20.6537 120.338 20.0616C120.338 19.4632 120.155 18.9819 119.794 18.6178C119.439 18.2568 118.894 18.0732 118.16 18.0732H116.45V22.0754Z" fill="#172b4d"/>
<path d="M137.098 19.8051H135.68C135.563 19.2628 135.348 18.8067 135.027 18.4368C134.707 18.067 134.315 17.7897 133.856 17.5986C133.394 17.4106 132.907 17.3151 132.389 17.3151C131.68 17.3151 131.039 17.4969 130.466 17.8575C129.899 18.2119 129.446 18.7389 129.11 19.4353C128.771 20.1349 128.605 20.9885 128.605 21.9994C128.605 23.0102 128.771 23.8669 129.11 24.5634C129.446 25.2537 129.899 25.7807 130.466 26.1412C131.039 26.5049 131.68 26.6836 132.389 26.6836C132.907 26.6836 133.394 26.5912 133.856 26.4001C134.315 26.2029 134.707 25.9193 135.027 25.5495C135.348 25.1797 135.563 24.7298 135.68 24.1936H137.098C136.95 24.9917 136.654 25.6728 136.211 26.2399C135.767 26.8069 135.215 27.2445 134.559 27.5465C133.899 27.8485 133.178 28.0026 132.389 28.0026C131.394 28.0026 130.506 27.7622 129.726 27.2753C128.953 26.7822 128.346 26.0888 127.902 25.1921C127.458 24.2983 127.236 23.2321 127.236 21.9994C127.236 20.7667 127.458 19.7034 127.902 18.8067C128.346 17.9037 128.953 17.2103 129.726 16.7234C130.506 16.2396 131.394 15.9961 132.389 15.9961C133.178 15.9961 133.899 16.1502 134.559 16.4522C135.215 16.748 135.767 17.1857 136.211 17.7589C136.654 18.3259 136.95 19.0101 137.098 19.8051Z" fill="#172b4d"/>
<path d="M149.884 21.9994C149.884 23.2321 149.662 24.2983 149.219 25.1921C148.775 26.0888 148.162 26.7822 147.382 27.2753C146.608 27.7622 145.721 28.0026 144.719 28.0026C143.724 28.0026 142.836 27.7622 142.057 27.2753C141.283 26.7822 140.676 26.0888 140.232 25.1921C139.788 24.2983 139.566 23.2321 139.566 21.9994C139.566 20.7667 139.788 19.7034 140.232 18.8067C140.676 17.9037 141.283 17.2103 142.057 16.7234C142.836 16.2396 143.724 15.9961 144.719 15.9961C145.721 15.9961 146.608 16.2396 147.382 16.7234C148.162 17.2103 148.775 17.9037 149.219 18.8067C149.662 19.7034 149.884 20.7667 149.884 21.9994ZM148.516 21.9994C148.516 20.9885 148.346 20.1349 148.011 19.4353C147.672 18.7389 147.215 18.2119 146.642 17.8575C146.075 17.4969 145.434 17.3151 144.719 17.3151C144.01 17.3151 143.369 17.4969 142.796 17.8575C142.229 18.2119 141.776 18.7389 141.44 19.4353C141.101 20.1349 140.935 20.9885 140.935 21.9994C140.935 23.0102 141.101 23.8669 141.44 24.5634C141.776 25.2537 142.229 25.7807 142.796 26.1412C143.369 26.5049 144.01 26.6836 144.719 26.6836C145.434 26.6836 146.075 26.5049 146.642 26.1412C147.215 25.7807 147.672 25.2537 148.011 24.5634C148.346 23.8669 148.516 23.0102 148.516 21.9994Z" fill="#172b4d"/>
<path d="M152.902 16.1572H154.591L158.561 25.8586H158.696L162.678 16.1572H164.367V27.8432H163.035V18.9555H162.924L159.276 27.8432H157.993L154.345 18.9555H154.221V27.8432H152.902V16.1572Z" fill="#172b4d"/>
<path d="M168.205 27.8432V16.1572H172.15C173.068 16.1572 173.82 16.3236 174.406 16.6503C174.988 16.9801 175.42 17.4238 175.7 17.9816C175.987 18.5425 176.131 19.165 176.131 19.8553C176.131 20.5456 175.99 21.1743 175.712 21.7414C175.432 22.3022 175 22.7491 174.418 23.085C173.832 23.4148 173.087 23.5781 172.174 23.5781H169.623V27.8432H168.205ZM169.623 22.3207H172.125C173.068 22.3207 173.74 22.0865 174.134 21.6181C174.535 21.1435 174.738 20.5549 174.738 19.8553C174.738 19.1496 174.535 18.5672 174.134 18.1049C173.731 17.6457 173.056 17.4146 172.113 17.4146H169.623V22.3207Z" fill="#172b4d"/>
<path d="M179.535 27.8432H178.043L182.345 16.1572H183.8L188.09 27.8432H186.61L185.439 24.5273H180.706L179.535 27.8432ZM181.149 23.2822H184.983L183.122 18.0063H183.023L181.149 23.2822Z" fill="#172b4d"/>
<path d="M199.835 16.1572V27.8432H198.466L192.093 18.6596H191.982V27.8432H190.564V16.1572H191.933L198.331 25.3532H198.442V16.1572H199.835Z" fill="#172b4d"/>
<path d="M202.297 16.1572H203.924L207.166 21.6058H207.302L210.544 16.1572H212.171L207.943 23.0234V27.8432H206.525V23.0234L202.297 16.1572Z" fill="#172b4d"/>
</g>
<defs>
<clipPath id="clip0_270_15497">
<rect width="212.171" height="43.9996" fill="white"/>
</clipPath>
</defs>
</svg>
