<svg width="227" height="119" viewBox="0 0 227 119" fill="none" xmlns="http://www.w3.org/2000/svg">
<path fill-rule="evenodd" clip-rule="evenodd" d="M40 62.7358C40 63.4805 40 63.8557 40.1904 63.9705C40.3808 64.0853 40.6211 63.8585 41.0971 63.3965L57.6163 47.5263C58.9537 46.2411 59.6223 45.5999 60.3998 45.5999C60.6027 45.5999 60.7981 45.6438 61 45.7314V62.063C60.8402 62.0219 60.6726 62 60.5 62C60.3274 62 60.1598 62.0219 60 62.063V56H52V63H58.7676C58.5974 63.2942 58.5 63.6357 58.5 64H52V71H60V65.937C60.1598 65.9781 60.3274 66 60.5 66C60.6726 66 60.8402 65.9781 61 65.937V71H68V64H62.5C62.5 63.6352 62.4023 63.2932 62.2317 62.9987H77V60.8002L79.7025 63.3965C80.1785 63.8557 80.4188 64.0853 80.6092 63.9705C80.7996 63.8557 80.7996 63.4805 80.7996 62.7358V61.5906V61.5905C80.7996 60.2466 80.7996 59.5746 80.5684 58.9922C80.3394 58.4098 79.9088 57.9954 79.0497 57.1722L73.9468 52.2689C73.9798 52.1377 73.9976 51.9981 73.9976 51.8535V43.4536C73.9976 42.6804 73.4902 42.0536 72.8643 42.0536H70.5976C69.9717 42.0536 69.4643 42.6804 69.4643 43.4536V47.9617L63.1832 41.9264C61.8459 40.6412 61.1772 40 60.3998 40C59.6252 40 58.9587 40.6392 57.6313 41.912L57.6163 41.9264L41.7498 57.1722C40.8908 57.9954 40.4601 58.4098 40.2312 58.9922C40 59.5746 40 60.2466 40 61.5906V62.7358ZM75.5103 59.3691L64.2 48.5032V59.3691H75.5103ZM61 72H68V79H61V72ZM69 64V71H77V64H69ZM77 72V77C77 78.1046 76.1046 79 75 79H69V72H77ZM51 65L44 65.0033V77.0033C44 78.1079 44.8954 79.0033 46 79.0033H60V72.0033L51 72V68.1111V65ZM65.5 58.5V51L73 58.5H65.5ZM51 56V63H44L51 56ZM60 55V47L52 55H60Z" fill="#005843"/>
<circle cx="60.5" cy="64" r="2" fill="#005843"/>
<path d="M94.7038 69.5V49.9H102.404C103.822 49.9 105.082 50.1893 106.184 50.768C107.285 51.328 108.144 52.112 108.76 53.12C109.394 54.1093 109.712 55.2667 109.712 56.592C109.712 57.88 109.404 59.0373 108.788 60.064C108.19 61.072 107.35 61.8653 106.268 62.444C105.185 63.0227 103.944 63.312 102.544 63.312H99.2118V69.5H94.7038ZM99.2118 59.168H102.432C103.234 59.168 103.878 58.9347 104.364 58.468C104.849 57.9827 105.092 57.3573 105.092 56.592C105.092 55.8267 104.83 55.2107 104.308 54.744C103.804 54.2587 103.132 54.016 102.292 54.016H99.2118V59.168ZM114.62 62.248C114.62 60.736 114.918 59.476 115.516 58.468C116.132 57.46 116.897 56.704 117.812 56.2C118.745 55.696 119.716 55.444 120.724 55.444V59.7C119.865 59.7 119.053 59.7933 118.288 59.98C117.541 60.1667 116.934 60.456 116.468 60.848C116.001 61.2213 115.768 61.7067 115.768 62.304L114.62 62.248ZM111.4 69.5V55.5H115.768V69.5H111.4ZM129.332 69.836C127.857 69.836 126.56 69.528 125.44 68.912C124.32 68.2773 123.433 67.4093 122.78 66.308C122.145 65.2067 121.828 63.9373 121.828 62.5C121.828 61.0627 122.136 59.7933 122.752 58.692C123.387 57.5907 124.264 56.732 125.384 56.116C126.523 55.4813 127.811 55.164 129.248 55.164C130.723 55.164 132.02 55.4813 133.14 56.116C134.279 56.732 135.156 57.5907 135.772 58.692C136.407 59.7933 136.724 61.0627 136.724 62.5C136.724 63.9373 136.407 65.2067 135.772 66.308C135.156 67.4093 134.288 68.2773 133.168 68.912C132.048 69.528 130.769 69.836 129.332 69.836ZM129.332 65.804C129.892 65.804 130.387 65.664 130.816 65.384C131.264 65.104 131.609 64.7213 131.852 64.236C132.113 63.732 132.244 63.1533 132.244 62.5C132.244 61.8467 132.113 61.2773 131.852 60.792C131.609 60.288 131.264 59.896 130.816 59.616C130.368 59.336 129.855 59.196 129.276 59.196C128.697 59.196 128.184 59.336 127.736 59.616C127.288 59.896 126.933 60.288 126.672 60.792C126.429 61.2773 126.308 61.8467 126.308 62.5C126.308 63.1533 126.429 63.732 126.672 64.236C126.933 64.7213 127.288 65.104 127.736 65.384C128.203 65.664 128.735 65.804 129.332 65.804ZM138.993 75.1V55.5H143.109L143.361 58.076V75.1H138.993ZM147.337 69.836C146.179 69.836 145.209 69.5467 144.425 68.968C143.641 68.3707 143.053 67.5213 142.661 66.42C142.269 65.3187 142.073 64.012 142.073 62.5C142.073 60.9693 142.269 59.6627 142.661 58.58C143.053 57.4787 143.641 56.6387 144.425 56.06C145.209 55.4627 146.179 55.164 147.337 55.164C148.643 55.164 149.773 55.4627 150.725 56.06C151.677 56.6387 152.405 57.4787 152.909 58.58C153.413 59.6627 153.665 60.9693 153.665 62.5C153.665 64.012 153.413 65.3187 152.909 66.42C152.405 67.5213 151.677 68.3707 150.725 68.968C149.773 69.5467 148.643 69.836 147.337 69.836ZM146.217 65.804C146.777 65.804 147.271 65.664 147.701 65.384C148.13 65.104 148.475 64.7213 148.737 64.236C148.998 63.732 149.129 63.1533 149.129 62.5C149.129 61.8467 149.007 61.2773 148.765 60.792C148.522 60.288 148.177 59.896 147.729 59.616C147.299 59.336 146.805 59.196 146.245 59.196C145.685 59.196 145.181 59.336 144.733 59.616C144.303 59.896 143.967 60.288 143.725 60.792C143.482 61.296 143.361 61.8653 143.361 62.5C143.361 63.1533 143.482 63.732 143.725 64.236C143.967 64.7213 144.303 65.104 144.733 65.384C145.162 65.664 145.657 65.804 146.217 65.804ZM160.538 69.5V54.044H154.826V49.9H170.73V54.044H165.018V69.5H160.538ZM174.537 75.436C173.94 75.436 173.305 75.324 172.633 75.1C171.98 74.876 171.429 74.6333 170.981 74.372L172.605 70.816C172.866 71.0027 173.118 71.1427 173.361 71.236C173.622 71.3293 173.856 71.376 174.061 71.376C174.416 71.376 174.733 71.2827 175.013 71.096C175.293 70.928 175.517 70.648 175.685 70.256L177.337 66.364L181.453 55.5H186.297L180.109 70.34C179.698 71.348 179.269 72.2347 178.821 73C178.373 73.7653 177.813 74.3627 177.141 74.792C176.488 75.2213 175.62 75.436 174.537 75.436ZM176.189 69.5L169.637 55.5H174.481L178.877 66.364L180.361 69.5H176.189Z" fill="#005843"/>
</svg>
