<svg viewBox="36 36 58 56" fill="none" xmlns="http://www.w3.org/2000/svg">
<path fill-rule="evenodd" clip-rule="evenodd" d="M40 67.9801C40 68.8967 40 69.3584 40.2343 69.4997C40.4686 69.641 40.7643 69.3619 41.3501 68.7933L61.6798 49.2624C63.3256 47.6807 64.1485 46.8916 65.1053 46.8916C65.355 46.8916 65.5955 46.9456 65.844 47.0534V67.1522C65.6473 67.1016 65.4411 67.0746 65.2286 67.0746C65.0162 67.0746 64.81 67.1016 64.6133 67.1522V59.6906H54.768V68.3053H63.0966C62.8872 68.6673 62.7673 69.0876 62.7673 69.536H54.768V78.1506H64.6133V71.9197C64.81 71.9704 65.0162 71.9973 65.2286 71.9973C65.4411 71.9973 65.6473 71.9704 65.844 71.9197V78.1506H74.4586V69.536H67.69C67.69 69.087 67.5698 68.6661 67.3598 68.3037H85.5346V65.5981L88.8605 68.7933C89.4463 69.3584 89.742 69.641 89.9763 69.4997C90.2106 69.3584 90.2106 68.8967 90.2106 67.9801V67.9801V66.5707V66.5707C90.2106 64.9167 90.2106 64.0897 89.9261 63.373C89.6443 62.6563 89.1143 62.1463 88.0571 61.1332L81.777 55.0988C81.8174 54.9377 81.8391 54.7665 81.8391 54.589V44.2515C81.8391 43.3 81.2147 42.5286 80.4444 42.5286H77.6549C76.8846 42.5286 76.2602 43.3 76.2602 44.2515V49.7977L68.5308 42.3707C66.885 40.7891 66.0621 40 65.1053 40C64.1521 40 63.3318 40.7866 61.6982 42.3531L61.6798 42.3707L42.1535 61.1332C41.0963 62.1463 40.5663 62.6563 40.2845 63.373C40 64.0898 40 64.9168 40 66.5707V67.9801ZM83.7013 63.8368L69.7821 50.4645V63.8368H83.7013ZM65.844 79.3813H74.4586V87.9959H65.844V79.3813ZM75.6893 69.536V78.1506H85.5346V69.536H75.6893ZM85.5346 79.3813V85.9959C85.5346 87.1005 84.6392 87.9959 83.5346 87.9959H75.6893V79.3813H85.5346ZM53.5373 70.7666L44.9227 70.7707V86C44.9227 87.1046 45.8181 88 46.9227 88H64.6133V79.3853L53.5373 79.3813V74.5954V70.7666ZM71.382 62.7673V53.5373L80.6119 62.7673H71.382ZM53.5373 59.6906V68.3053H44.9227L53.5373 59.6906ZM64.6133 58.46V48.6147L54.768 58.46H64.6133Z" fill="#005843"/>
<circle cx="65.2289" cy="69.5355" r="2.46133" fill="#005843"/>
</svg>
